<svg xmlns="http://www.w3.org/2000/svg" version="1.1" xmlns:xlink="http://www.w3.org/1999/xlink" width="48" height="48"><svg xmlns="http://www.w3.org/2000/svg" width="48" height="48" fill="none" viewBox="0 0 48 48"><g clip-path="url(#a)"><path fill="#4c83f6" fill-rule="evenodd" d="M47.831 16.996v3.47l-1.775.028V48h-21.57V8.868l23.16 8.128zM35.263 30.158l-8.08-1.285-.002-10.675 8.08 1.966zm7.999 1.36-7.141-1.17-.023-9.955 7.163 1.89z" clip-rule="evenodd"></path><path fill="#fff" fill-rule="evenodd" d="m27.184 28.873 8.08 1.285-.003-9.994-8.08-1.966zM36.12 30.347l7.142 1.171-.001-9.234-7.163-1.891z" clip-rule="evenodd"></path><path fill="#4c83f6" fill-rule="evenodd" d="M.001 20.541 0 16.98l.151-.003 23.19-8.11V48H1.797V20.514zm20.649-2.33-8.08 1.97.003 9.993 8.079-1.289zm-8.978 2.198L4.49 22.303l.002 9.234 7.182-1.173zM5.437 42.4l5.247-.313-.001-8.696-5.247.758z" clip-rule="evenodd"></path><path fill="#fff" fill-rule="evenodd" d="m4.49 22.303 7.182-1.895.002 9.956-7.182 1.173zM12.57 20.18l8.08-1.97.002 10.675-8.079 1.289zM10.684 42.088l-5.247.313-.001-8.251 5.247-.758z" clip-rule="evenodd"></path><path fill="#4c83f6" d="m23.962 0-5.43 2.004v7.418l5.432-2.063"></path><path fill="#4c83f6" d="m23.964 7.359 5.343 2.062L29.305 2 23.962 0"></path></g><defs><clipPath id="SvgjsClipPath1006"><path fill="#fff" d="M0 0h48v48H0z"></path></clipPath></defs></svg><style>@media (prefers-color-scheme: light) { :root { filter: none; } }
@media (prefers-color-scheme: dark) { :root { filter: none; } }
</style></svg>