<svg xmlns="http://www.w3.org/2000/svg" width="16" height="16" fill="none" viewBox="0 0 16 16">
  <path fill="#fff" d="M.75 1.5h1.5c.40625 0 .75.34375.75.75v1.5c0 .4375-.34375.75-.75.75v2.75H4c0-.40625.3125-.75.75-.75h1.5c.40625 0 .75.34375.75.75v1.5c0 .4375-.34375.75-.75.75h-1.5c-.4375 0-.75-.3125-.75-.75H2.25V12c0 .1562.09375.25.25.25H4c0-.4062.3125-.75.75-.75h1.5c.40625 0 .75.3438.75.75v1.5c0 .4375-.34375.75-.75.75h-1.5c-.4375 0-.75-.3125-.75-.75H2.5c-.96875 0-1.75-.7812-1.75-1.75V4.5C.3125 4.5 0 4.1875 0 3.75v-1.5c0-.40625.3125-.75.75-.75ZM5 3c0-.40625.3125-.75.75-.75h9.5c.4062 0 .75.34375.75.75 0 .4375-.3438.75-.75.75h-9.5C5.3125 3.75 5 3.4375 5 3Zm4 5c0-.40625.3125-.75.75-.75h5.5c.4062 0 .75.34375.75.75 0 .4375-.3438.75-.75.75h-5.5C9.3125 8.75 9 8.4375 9 8Zm0 5c0-.4062.3125-.75.75-.75h5.5c.4062 0 .75.3438.75.75 0 .4375-.3438.75-.75.75h-5.5c-.4375 0-.75-.3125-.75-.75Z"/>
</svg>
