<svg xmlns="http://www.w3.org/2000/svg" width="16" height="16" fill="none" viewBox="0 0 16 16">
  <path fill="#fff" d="M7.15625 1c.53125 0 1.03125.21875 1.40625.59375l5.5 5.5c.7813.78125.7813 2.0625 0 2.84375l-4.15625 4.1563c-.78125.7812-2.0625.7812-2.84375 0l-5.5-5.50005C1.1875 8.21875 1 7.71875 1 7.1875V2.5C1 1.6875 1.65625 1 2.5 1h4.65625ZM2.5 7.1875c0 .125.03125.25.125.34375l5.5 5.49995c.1875.1876.53125.1876.71875 0L13 8.875c.2188-.1875.2188-.53125 0-.71875l-5.5-5.5C7.40625 2.5625 7.28125 2.5 7.15625 2.5H2.5v4.6875ZM4.5 3.5c.53125 0 1 .46875 1 1 0 .5625-.46875 1-1 1-.5625 0-1-.4375-1-1 0-.53125.4375-1 1-1Z"/>
</svg>
