<svg xmlns="http://www.w3.org/2000/svg" width="12" height="16" fill="none">
    <path fill="#fff" d="M7.5 3c0-.813-.688-1.5-1.5-1.5A1.5 1.5 0 0 0 4.5 3v5c0 .844.656 1.5 1.5 1.5A1.5 1.5 0 0 0 7.5 8V3ZM3 3a3 3 0 0 1 6 0v5a3 3 0 0 1-6 0V3ZM2 6.75V8c0 2.219 1.781 4 4 4 2.188 0 4-1.781 4-4V6.75a.74.74 0 0 1 .75-.75.76.76 0 0 1 .75.75V8c0 2.813-2.094 5.094-4.75 5.469V14.5h1.5a.76.76 0 0 1 .75.75.74.74 0 0 1-.75.75h-4.5a.722.722 0 0 1-.75-.75.74.74 0 0 1 .75-.75h1.5v-1.031A5.502 5.502 0 0 1 .5 8V6.75A.74.74 0 0 1 1.25 6a.76.76 0 0 1 .75.75Z"/>
</svg>