<svg xmlns="http://www.w3.org/2000/svg" width="92" height="16" fill="none">
  <path fill="#D3D7DE" d="M9 0H7L5.513 4.577H.7L.083 6.479l3.893 2.829-1.487 4.576 1.618 1.176L8 12.23l3.893 2.829 1.618-1.176-1.487-4.576 3.894-2.83-.619-1.901h-4.812L9 0ZM28 0h-2l-1.487 4.577H19.7l-.619 1.902 3.894 2.829-1.487 4.576 1.618 1.176L27 12.23l3.893 2.829 1.618-1.176-1.487-4.576 3.893-2.83-.618-1.901h-4.812L28 0ZM47 0h-2l-1.487 4.577H38.7l-.618 1.902 3.893 2.829-1.487 4.576 1.618 1.176L46 12.23l3.893 2.829 1.618-1.176-1.487-4.576 3.893-2.83-.618-1.901h-4.812L47 0ZM66 0h-2l-1.487 4.577H57.7l-.618 1.902 3.893 2.829-1.487 4.576 1.618 1.176L65 12.23l3.893 2.829 1.618-1.176-1.487-4.576 3.894-2.83-.619-1.901h-4.812L66 0ZM85 0h-2l-1.487 4.577H76.7l-.618 1.902 3.893 2.829-1.487 4.576 1.618 1.176L84 12.23l3.893 2.829 1.618-1.176-1.487-4.576 3.894-2.83-.619-1.901h-4.812L85 0Z"/>
</svg>
