<svg xmlns="http://www.w3.org/2000/svg" width="20" height="16" fill="none"><path fill="#6D99F8" d="M16.656 1.031C18.688 2.688 20 5.188 20 8c0 2.844-1.313 5.344-3.344 7a.754.754 0 0 1-1.062-.125.742.742 0 0 1 .125-1.031A7.511 7.511 0 0 0 18.5 8c0-2.344-1.094-4.438-2.781-5.813a.776.776 0 0 1-.125-1.062.779.779 0 0 1 1.062-.094Zm-1.875 2.313C16.125 4.469 17 6.125 17 8a5.965 5.965 0 0 1-2.219 4.656.744.744 0 0 1-1.062-.094c-.281-.312-.219-.78.094-1.062A4.416 4.416 0 0 0 15.5 8a4.4 4.4 0 0 0-1.688-3.469.779.779 0 0 1-.093-1.062.776.776 0 0 1 1.062-.125Zm-1.906 2.344C13.563 6.25 14 7.063 14 8c0 .969-.438 1.781-1.125 2.344a.754.754 0 0 1-1.063-.125.742.742 0 0 1 .126-1.031c.343-.282.562-.72.562-1.188 0-.469-.219-.875-.563-1.156a.776.776 0 0 1-.124-1.063.779.779 0 0 1 1.062-.093ZM9.406 1.093C9.75 1.25 10 1.625 10 2v12c0 .406-.25.75-.594.938a1.012 1.012 0 0 1-1.094-.188L4.095 11H2c-1.125 0-2-.875-2-2V7c0-1.094.875-2 2-2h2.094l4.218-3.719a1.012 1.012 0 0 1 1.094-.187Z"/></svg>