<svg xmlns="http://www.w3.org/2000/svg" width="18" height="39" fill="none" viewBox="0 0 18 39">
  <path fill="#4C83F6" fill-rule="evenodd" d="M17.356 6.622.113 12.663 0 12.665l.001 2.658H1.33V38.51h16.027V6.622ZM7.934 24.915l-3.897.565.001 6.16 3.897-.235-.001-6.49Zm7.404-3.364-6 .962-.001-7.459 6-1.47.001 7.967ZM3.337 23.53l5.333-.877-.001-7.43-5.333 1.415.001 6.891Zm8.644 6.142c.908-.062 1.663-.945 1.663-1.97 0-1.024-.755-1.76-1.664-1.643-.88.112-1.575.987-1.575 1.96 0 .972.696 1.712 1.576 1.653Z" clip-rule="evenodd"/>
  <path fill="#4C83F6" d="m18 5.52-3.948 1.407V1.495L18 0"/>
</svg>
