<svg xmlns="http://www.w3.org/2000/svg" width="60" height="60" fill="none" viewBox="0 0 60 60">
  <circle cx="24" cy="35.596" r="24" fill="#1C1F27"/>
  <mask id="a" width="53" height="53" x="0" y="7" maskUnits="userSpaceOnUse" style="mask-type:alpha">
    <path fill="#363D49" d="M48 35.596c0 13.255-10.745 24-24 24s-24-10.745-24-24c0-13.254 10.745-24 24-24 6.147 0 22.754-7.3 27-3.5 4.91 4.395-3 20.392-3 27.5Z"/>
  </mask>
  <g mask="url(#a)">
    <path fill="#fff" fill-rule="evenodd" d="m52 14.447-.154-.703-.453-.454c.246-.851.154-2.754-1.162-4.07-1.148-1.147-2.616-1.27-3.194-1.27a3.58 3.58 0 0 0-.881.105l-.398-.399-.709-.06-.602.604-1.82.443-7.758 7.758.081.7-.012-.012-1.557 1.558.125.126-.198.84-.405.407-.37 1.29.312.312c-.935.418-2.02 1.38-1.93 3.124l-.725.724-1.097.128-.97.865-.246-.202-7.987 7.82-.3-.3-.984.983-2.772.673-1.705 1.706-17.273 17.27-.227.235.177.272c.057.089.223.4-.058.676-.147.146-.276.164-.53.188-.286.027-.678.065-1.05.437-.4.401-.367.84-.345 1.13.02.26.016.318-.082.402-.253.217-.448.232-.695.251h-.003c-.272.02-.61.046-.94.354-.572.536-.582 1.11-.452 1.496l-5.106 5.107.102 1.414-1.105 1.105-1.48.102-1.538 1.537c-.359.076-.876.2-1.088.344-.073.05-7.343 7.477-7.3 9.54-.151 1.204-.151 1.204-.308 1.53-.18.377-.672 1.627-.729 1.77l-.004.012-.095.245 3.037 3.036.256-.122s1.227-.587 1.607-.772c.079-.038.139-.066.2-.09.193-.074.403-.101 1.272-.214 2.078.08 9.755-7.435 9.804-7.508.133-.198.251-.662.328-1.016l1.533-1.532.067-1.384 1.026-1.083 1.44-.067 5.017-5.019c.387.13.961.122 1.497-.45.309-.328.335-.669.355-.942.019-.249.034-.445.25-.697.08-.092.132-.105.403-.082h.003c.291.022.727.054 1.128-.345.37-.373.409-.765.436-1.051.024-.254.042-.383.188-.53.277-.28.587-.115.672-.06l.275.188 17.492-17.492 1.721-1.72.676-2.77 1.644-1.644-.276-.276 7.242-7.244-.148-.242.836-.946.116-1.116.753-.753c1.606-.124 2.573-1.134 3.028-1.965l.752.752 1.235-1.237.842-.198.126.127 1.418-1.419.77.194 8.175-8.178.174-1.617.63-.629Zm-4.964-5.696c.479 0 1.691.1 2.626 1.037.906.905 1.06 2.1 1.03 2.802l-1.963-1.963-1.872-1.872c.057-.002.116-.004.18-.004Zm-1.682-.323 5.757 5.718.01.044-.658.659.012.01-2.008 2.045-1.149-1.147 1.595-1.596.196-1.087-2.766-2.767-.944.315-1.574 1.573-1.12-1.12 1.992-1.991.657-.656Zm.787 9.778-2.217 2.217-.74.216-.375-.374 3.115-3.114.217 1.055Zm-9.183 2.52.525-.524 1.92 1.92-.525.526-1.92-1.921Zm3.431.854h-.424l-1.984-2-.036-.364 7.886-7.89.294-.1 2.12 2.119-.078.441-7.778 7.794Zm-1.482-5.155.218-.805 2.122-2.122 1.11.164-3.108 3.108-.342-.345Zm3.477-4.536.547.546a.696.696 0 0 1-.324.1c-.058-.003-.15-.02-.257-.145-.122-.14-.06-.336.034-.501Zm4.746 4.815.546.546a.72.72 0 0 1-.339.122c-.06.001-.134-.01-.224-.102-.093-.092-.104-.17-.103-.227a.725.725 0 0 1 .12-.34ZM43.037 9.37l.317-.078-1.783 1.783.233.233c-.268.386-.467.937-.174 1.436l-.665-.098-2.558 2.557-.184.683-.927-.129-1.517 1.517-.068-.58 7.326-7.324Zm-7.97 8.726.107.919 2.407-2.408.437.061.663.67-1.573 1.572.05.482-.948.948-1.693-1.694.55-.55Zm-4.125 7.757.381-.381 2.77 2.769-.381.38-2.77-2.768Zm-12.697 9.684 5.663 5.66-.254.924-6.338-6.34.929-.244ZM-11.47 65.112l1.666-1.665 5.801 5.801-1.603 1.603-5.864-5.739Zm3.391 6.872-.22.234-4.41-4.35.258-.257 1.32 1.321.826-.206 2.054 2.053-.207.827.38.378Zm-5.772-3.67.418-.03 4.733 4.667-.023.49-5.128-5.128Zm-.908.226 5.73 5.732-.838.839-.578-.462-2.545 2.373-.893-.892 2.565-2.53-2.753-2.752-2.546 2.547-.966-.965 2.272-2.533-.398-.406.95-.95Zm2.04 5.304-1.613-1.614.392-.377 1.614 1.615-.393.376Zm-6.942 9.55h-.01c-.993 0-1.247.162-1.518.334-.078.05-.158.101-.258.15-.12.058-.323.165-.545.283-.281.15-.593.314-.805.416l-2.264-2.239c.162-.409.484-1.2.614-1.47.214-.443.22-.487.384-1.828-.028-1.49 6.242-8.306 6.943-8.91.076-.045.376-.129.7-.203l-2.268 2.53 2.07 2.071 1.859-1.858 1.608 1.61-1.87 1.846 2.012 2.012 2.605-2.429.104.084a2.468 2.468 0 0 1-.173.523c-.481.563-7.608 7.078-9.188 7.078Zm12.43-12.305-.295.312-.042-.041.207-.827-2.696-2.695-.826.205-1-1 .359-.359-.04-.54 5.02 4.914-.687.031Zm11.893-9.27c-.378-.135-.924-.156-1.385.311-.353.356-.39.738-.418 1.017v.002c-.023.244-.037.39-.204.559-.135.134-.245.13-.501.112H2.15c-.283-.022-.716-.055-1.072.36-.387.451-.419.86-.44 1.159-.018.235-.03.335-.14.453-.376.398-.676.245-.753.19l-.279-.208-2.904 2.905-5.8-5.802 2.658-2.658.231-.244-.19-.276c-.057-.083-.212-.382.188-.757.118-.11.217-.121.452-.139h.002c.299-.022.706-.053 1.158-.441.417-.356.383-.789.361-1.074-.02-.256-.023-.366.112-.501.168-.168.315-.182.56-.205h.002c.279-.028.66-.065 1.015-.417.469-.462.446-1.009.312-1.387l17.042-17.04 7.036 7.038-17.04 17.043ZM22.27 44.21l-7.037-7.038 1.168-1.168 7.038 7.038-1.17 1.168Zm-3.097-8.879.416-.415.767.766 1.055-.266.93.929-.27 1.253 1.7 1.698 1.03-.26-.008.006.276.275-.954.955-4.942-4.94Zm6.31 3.022-.254-.254-1.214.307-1.067-1.067.269-1.253-1.561-1.56-1.055.267-.143-.143 7.413-7.259 4.286 4.286-6.674 6.676Zm3.091-11.395.372-.371 4.049 4.05-.372.37-4.049-4.05Zm1.242-.636.413-.048 3.065 3.064-.044.419-3.434-3.435Zm5 1.508-3.104-3.104c-.098-1.707 1.237-2.311 1.757-2.481l.875.874.939-.3 2.357 2.357-.36.879c-.217.48-.897 1.646-2.464 1.775Zm4.642-2.39-.83.83-.404-.404.36-.878-3.079-3.08-.939.299-1.13-1.13.182-.636.419-.422.136-.58 5.865 5.866-.58.136Zm1.374-.478-1.566-1.551 1.043-1.028h.413l1.52-1.535.691.682.05.346-2.39 2.39.75.186-.511.51Zm9.594-8.633-7.652 7.654-.612-.155 1.675-1.674-.122-.834.631-.184 2.669-2.668-.077-.277c.045.018.09.046.137.075.083.05.17.103.258.103h.019c.314 0 .6-.214.817-.377l.088-.065.218.17 1.986-2.073-.035.305Zm-6.507-2.992c-.313.314-.49.726-.498 1.162a1.587 1.587 0 0 0 1.594 1.626c.448 0 .871-.177 1.193-.499.321-.32.498-.744.498-1.192 0-.43-.165-.832-.464-1.131-.61-.61-1.694-.596-2.323.034Zm1.722 1.72c-.327.328-.878.345-1.188.035a.786.786 0 0 1-.229-.578.883.883 0 0 1 .264-.609.883.883 0 0 1 .625-.263c.215 0 .415.082.562.229.148.148.23.348.23.562a.877.877 0 0 1-.264.625ZM14.811 42.86c.53-.527 1.378-.6 1.823-.156.198.198.308.472.308.772.001.375-.167.758-.461 1.052L4.952 56.057c-.294.293-.677.462-1.052.462-.3 0-.573-.11-.772-.308a1.107 1.107 0 0 1-.297-.929c.04-.325.2-.643.453-.895L14.812 42.86Zm1.256.412a.284.284 0 0 0-.202-.072.66.66 0 0 0-.331.118 1.37 1.37 0 0 1 .497.476.634.634 0 0 0 .109-.318.289.289 0 0 0-.073-.204Zm-.803.84a.668.668 0 0 0-.124-.1l-.82.819a.696.696 0 0 0 .224.224l.82-.82a.649.649 0 0 0-.1-.123ZM3.899 55.716a.719.719 0 0 0 .485-.227l9.75-9.75a1.45 1.45 0 0 1-.526-.54l-9.756 9.756a.764.764 0 0 0-.224.427c-.008.064-.01.184.067.262.06.059.144.072.204.072Z" clip-rule="evenodd"/>
  </g>
</svg>
