<svg xmlns="http://www.w3.org/2000/svg" width="24" height="24" fill="none">
  <path fill="#D3D7DE" d="M1.5 1.5h3.75c9.527 0 17.25 7.723 17.25 17.25v3.75h-2.25v-3.75c0-8.284-6.716-15-15-15H1.5V1.5Z"/>
  <path fill="#D3D7DE" fill-rule="evenodd" d="M5.25 22.5a3.75 3.75 0 1 0 0-7.5 3.75 3.75 0 0 0 0 7.5Zm0-2.25a1.5 1.5 0 1 0 0-3 1.5 1.5 0 0 0 0 3Z" clip-rule="evenodd"/>
  <path fill="#D3D7DE" d="M5.25 8.25H1.5v2.25h3.75a8.25 8.25 0 0 1 8.25 8.25v3.75h2.25v-3.75c0-5.799-4.701-10.5-10.5-10.5Z"/>
</svg>
