<svg xmlns="http://www.w3.org/2000/svg" width="24" height="24" fill="none" viewBox="0 0 24 24">
  <g clip-path="url(#a)">
    <path fill="#fff" d="M21.7812 10.0762c-2.0654.0459-3.9931-.59671-5.6455-1.79007V16.502c0 3.121-1.9277 5.875-4.8652 6.9765-2.89159 1.1016-6.19628.2754-8.21581-2.0654-2.065432-2.3867-2.43262-5.7373-.96387-8.4912 1.46875-2.708 4.49805-4.22268 7.61914-3.8096v4.1309c-1.42285-.459-2.9834.0459-3.85547 1.2392-.82617 1.2393-.82617 2.8457.0459 4.0391.87207 1.1933 2.43262 1.6982 3.80957 1.2392 1.42284-.4589 2.38674-1.79 2.38674-3.2587V.4375h4.039c0 .367188 0 .68848.0918 1.05566.2754 1.51465 1.1475 2.84571 2.4786 3.67188.872.59668 1.9736.91797 3.0751.91797v3.99319Z"/>
  </g>
  <defs>
    <clipPath id="a">
      <path fill="#fff" d="M0 0h24v24H0z"/>
    </clipPath>
  </defs>
</svg>
