<svg xmlns="http://www.w3.org/2000/svg" width="24" height="24" fill="none">
  <path fill="#D3D7DE" d="M17.285 11.197a6.505 6.505 0 0 0-.29-.13c-.17-3.13-1.886-4.921-4.768-4.94h-.04c-1.724 0-3.157.734-4.04 2.068l1.586 1.082c.659-.995 1.693-1.208 2.456-1.208h.026c.95.005 1.665.28 2.128.817.337.39.563.929.674 1.61-.84-.143-1.75-.187-2.724-.131-2.74.157-4.5 1.748-4.383 3.961.06 1.122.62 2.088 1.58 2.718.811.533 1.854.794 2.94.734 1.433-.077 2.557-.623 3.342-1.619.595-.756.972-1.736 1.138-2.97.684.41 1.19.95 1.47 1.6.474 1.103.502 2.918-.984 4.398-1.302 1.296-2.868 1.856-5.233 1.873-2.623-.02-4.608-.857-5.898-2.49C5.057 17.04 4.432 14.83 4.409 12c.023-2.828.648-5.038 1.856-6.568 1.29-1.634 3.275-2.471 5.898-2.49 2.643.019 4.662.86 6.001 2.503.657.805 1.152 1.817 1.478 2.997L21.5 7.95c-.396-1.452-1.018-2.705-1.866-3.743C17.918 2.101 15.406 1.023 12.17 1h-.012c-3.23.022-5.714 1.105-7.382 3.218-1.485 1.88-2.25 4.496-2.276 7.774v.016c.025 3.28.791 5.895 2.276 7.774 1.668 2.113 4.152 3.195 7.382 3.218h.012c2.871-.02 4.895-.769 6.563-2.428 2.18-2.171 2.115-4.892 1.396-6.562-.515-1.198-1.499-2.17-2.844-2.813Zm-4.957 4.643c-1.201.067-2.45-.47-2.51-1.62-.046-.853.61-1.805 2.583-1.919.227-.012.448-.02.666-.02.718 0 1.389.07 1.998.202-.227 2.83-1.562 3.29-2.737 3.354v.003Z"/>
</svg>
