<svg xmlns="http://www.w3.org/2000/svg" width="24" height="20" fill="none" viewBox="0 0 24 20">
  <g clip-path="url(#a)">
    <path fill="#D3D7DE" d="M5.473 2.208C8.116 4.067 10.959 7.843 12 9.872c1.041-2.024 3.884-5.8 6.527-7.663 1.906-1.343 4.993-2.38 4.993.927 0 .66-.403 5.55-.638 6.344-.824 2.756-3.82 3.462-6.487 3.032 4.658.744 5.844 3.21 3.282 5.676-4.861 4.686-6.984-1.173-7.528-2.674-.077-.208-.117-.332-.149-.332-.032 0-.072.128-.15.332-.543 1.5-2.67 7.36-7.527 2.674-2.557-2.466-1.376-4.932 3.282-5.676-2.666.43-5.663-.276-6.482-3.036C.883 8.68.48 3.79.48 3.131c0-3.308 3.087-2.27 4.993-.927v.004Z"/>
  </g>
  <defs>
    <clipPath id="a">
      <path fill="#fff" d="M0 0h24v20H0z"/>
    </clipPath>
  </defs>
</svg>
