<svg xmlns="http://www.w3.org/2000/svg" width="24" height="24" fill="none">
  <path fill="#D3D7DE" d="M12 3.398h4.301c1.012 0 1.518.253 1.898.38.506.252.885.379 1.265.758.38.38.632.76.759 1.265.126.38.253.886.38 1.898V16.3c0 1.012-.254 1.518-.38 1.898-.253.506-.38.885-.76 1.265-.379.38-.758.632-1.264.759-.38.126-.886.253-1.898.38H7.7c-1.012 0-1.518-.254-1.898-.38-.506-.253-.885-.38-1.265-.76-.38-.379-.632-.758-.759-1.264-.126-.38-.253-.886-.38-1.898V7.7c0-1.012.254-1.518.38-1.898.253-.506.38-.885.76-1.265.379-.38.758-.632 1.264-.759.38-.126.886-.253 1.898-.38H12ZM12 1.5H7.699c-1.139 0-1.898.253-2.53.506A5.524 5.524 0 0 0 3.27 3.271c-.632.633-.885 1.139-1.265 1.898-.253.632-.38 1.391-.506 2.53V16.3c0 1.139.253 1.898.506 2.53a5.523 5.523 0 0 0 1.265 1.898c.633.632 1.139.886 1.898 1.265.632.253 1.391.38 2.53.506H16.3c1.139 0 1.898-.253 2.53-.506a5.523 5.523 0 0 0 1.898-1.265c.632-.633.886-1.139 1.265-1.898.253-.632.38-1.391.506-2.53V7.7c0-1.139-.253-1.898-.506-2.53a5.524 5.524 0 0 0-1.265-1.898c-.633-.632-1.139-.885-1.898-1.265-.632-.253-1.391-.38-2.53-.506H12Z"/>
  <path fill="#D3D7DE" d="M12 6.56A5.4 5.4 0 0 0 6.56 12 5.4 5.4 0 0 0 12 17.44 5.4 5.4 0 0 0 17.44 12 5.4 5.4 0 0 0 12 6.56Zm0 8.982c-1.898 0-3.542-1.518-3.542-3.542 0-1.898 1.518-3.542 3.542-3.542 1.898 0 3.542 1.518 3.542 3.542 0 1.898-1.644 3.542-3.542 3.542ZM17.566 7.699a1.265 1.265 0 1 0 0-2.53 1.265 1.265 0 0 0 0 2.53Z"/>
</svg>
