<svg xmlns="http://www.w3.org/2000/svg" width="29" height="28" fill="none">
  <path fill="#D3D7DE" fill-rule="evenodd" d="M24.514 5.112c1.174.335 2.013 1.173 2.348 2.347.671 2.18.671 6.541.671 6.541s0 4.36-.503 6.54c-.335 1.175-1.174 2.013-2.348 2.349-2.18.503-10.566.503-10.566.503s-8.553 0-10.565-.503c-1.174-.336-2.013-1.174-2.348-2.348C.7 18.36.7 14 .7 14s0-4.361.335-6.542c.336-1.174 1.174-2.012 2.348-2.347 2.18-.504 10.566-.504 10.566-.504s8.553 0 10.565.504ZM18.477 14l-7.044 4.025v-8.05L18.477 14Z" clip-rule="evenodd"/>
</svg>
