<svg xmlns="http://www.w3.org/2000/svg" width="29" height="22" fill="none">
  <g clip-path="url(#a)">
    <path fill="#D3D7DE" d="M23.797 1.79A22.93 22.93 0 0 0 18.024 0c-.254.44-.537 1.037-.734 1.506a21.93 21.93 0 0 0-6.396 0A18.512 18.512 0 0 0 10.16 0a22.605 22.605 0 0 0-5.775 1.79C.73 7.217-.259 12.517.235 17.745c2.428 1.776 4.771 2.856 7.074 3.566a17.339 17.339 0 0 0 1.51-2.457 14.77 14.77 0 0 1-2.386-1.151c.198-.142.396-.299.58-.455 4.6 2.117 9.585 2.117 14.13 0 .198.156.382.313.58.455-.763.454-1.553.838-2.386 1.15.437.867.945 1.691 1.51 2.458 2.301-.71 4.658-1.79 7.074-3.566.607-6.052-.962-11.309-4.124-15.955ZM9.454 14.52c-1.383 0-2.513-1.264-2.513-2.813 0-1.549 1.102-2.813 2.513-2.813 1.398 0 2.54 1.264 2.513 2.813 0 1.549-1.115 2.813-2.513 2.813Zm9.276 0c-1.384 0-2.514-1.264-2.514-2.813 0-1.549 1.102-2.813 2.514-2.813 1.397 0 2.54 1.264 2.512 2.813 0 1.549-1.1 2.813-2.512 2.813Z"/>
  </g>
  <defs>
    <clipPath id="a">
      <path fill="#fff" d="M.116 0h28v22h-28z"/>
    </clipPath>
  </defs>
</svg>
