<svg xmlns="http://www.w3.org/2000/svg" width="276" height="73" fill="none" viewBox="0 0 276 73">
  <g clip-path="url(#a)">
    <g fill="#4C83F6" clip-path="url(#b)">
      <path fill-rule="evenodd" d="M32.16 13.1.2 24.28H0v4.93h2.46v42.96h29.7V13.09ZM14.7 46.98l-7.22 1.04v11.42L14.7 59V47Zm13.72-6.24L17.3 42.54V28.72l11.12-2.73v14.76ZM6.18 44.42l9.88-1.62V29.03l-9.88 2.62v12.77ZM22.2 55.8c1.68-.11 3.08-1.75 3.08-3.65s-1.4-3.26-3.08-3.04c-1.63.2-2.92 1.83-2.92 3.63 0 1.8 1.29 3.17 2.92 3.06Z" clip-rule="evenodd"/>
      <path d="m33.35 11.05-7.31 2.6V3.6L33.35.82"/>
    </g>
    <path fill="#4C83F6" d="M41.86 67.34h116.58v4.54H41.86z"/>
    <path fill="#fff" d="M164.88 62.8h3.2c.79 0 1.66.1 2.38.74.78.68.89 1.58.89 2.2 0 1.15-.44 1.8-.78 2.15-.72.73-1.67.8-2.31.8h-1.28v3.18h-2.1V62.8Zm2.1 1.71v2.46h.75c.28 0 .78 0 1.13-.34.19-.19.34-.5.34-.9 0-.38-.14-.69-.34-.88-.32-.3-.77-.34-1.18-.34h-.7Zm10.52-1.92c1.41 0 2.6.44 3.5 1.32a4.72 4.72 0 0 1 1.42 3.43 4.7 4.7 0 0 1-4.92 4.74 5 5 0 0 1-3.54-1.33 4.63 4.63 0 0 1-1.42-3.38c0-1.3.59-2.63 1.4-3.45a4.87 4.87 0 0 1 3.56-1.33Zm-.02 1.93c-.79 0-1.5.29-1.98.78-.4.38-.8 1.05-.8 2.06a2.7 2.7 0 0 0 2.77 2.79c.92 0 1.58-.34 2.01-.78.36-.34.8-.98.8-2.03 0-.94-.39-1.63-.8-2.04a2.91 2.91 0 0 0-2-.78Zm6.5-1.72h2.88c1.2 0 2.46.17 3.58 1.25.8.77 1.3 1.84 1.3 3.25 0 1.43-.49 2.46-1.24 3.21a4.9 4.9 0 0 1-3.58 1.36h-2.94V62.8Zm2.1 1.76v5.55h.56c.43 0 1.39-.05 2.07-.62.49-.4.88-1.18.88-2.19 0-.98-.4-1.6-.75-1.96a3 3 0 0 0-2.2-.78h-.56Zm13.78 4.62v2.4c-.8.42-1.45.5-2 .5-1.67 0-2.8-.57-3.56-1.32a4.75 4.75 0 0 1-1.42-3.45c0-1.42.6-2.62 1.42-3.41.8-.78 1.97-1.3 3.39-1.3.6 0 1.29.11 2.17.5v2.42a2.88 2.88 0 0 0-2.12-.97c-.76 0-1.38.25-1.85.7a2.9 2.9 0 0 0-.86 2.1c0 .94.38 1.61.8 2 .18.2.83.77 1.95.77.55 0 1.28-.15 2.08-.94Zm7.7 2.7-.68-1.72h-3.43l-.7 1.71h-2.17l3.66-9.07h1.92l3.58 9.07h-2.18Zm-3.5-3.33h2.25l-1.12-3.05-1.13 3.05Zm12.32-5.06-.94 1.52a2.21 2.21 0 0 0-1.53-.65c-.28 0-.63.04-.88.31a.81.81 0 0 0-.23.58c0 .21.07.38.2.5.22.2.53.28 1.15.52l.68.26c.4.14.88.35 1.24.69.53.5.66 1.16.66 1.69 0 .94-.32 1.75-.8 2.24-.8.85-1.97.93-2.57.93-.66 0-1.23-.1-1.8-.38-.46-.23-1-.66-1.33-1l1.09-1.5c.23.24.6.55.84.7.35.22.72.33 1.14.33.27 0 .66-.06.96-.32.17-.15.32-.39.32-.73a.8.8 0 0 0-.31-.65c-.25-.2-.8-.41-1.06-.5l-.75-.27a3.06 3.06 0 0 1-1.27-.72 2.23 2.23 0 0 1-.54-1.58c0-.8.24-1.48.79-2.04.64-.65 1.4-.83 2.24-.83.63 0 1.64.11 2.7.9Zm7.02 1.07h-1.97v7.31h-2.1v-7.3h-1.97V62.8h6.04v1.76Zm11.4 2.73 1.18 1.15c-.4.5-.8.94-1.2 1.31l1.93 2.12h-2.56l-.82-.88c-.34.34-.76.65-1.16.82-.51.21-1.1.27-1.7.27-.75 0-1.6-.06-2.3-.72a2.5 2.5 0 0 1-.78-1.88c0-.75.25-1.34.71-1.81.37-.38.91-.68 1.47-.85a3.86 3.86 0 0 1-.62-.8c-.18-.34-.25-.7-.25-1.06 0-.78.3-1.3.64-1.63.4-.39 1.03-.74 2-.74.93 0 1.6.31 2.03.74a2.2 2.2 0 0 1-.07 3.14c-.26.25-.61.48-.98.63l1.32 1.45c.45-.4.83-.84 1.16-1.26Zm-2.64 2.38-1.57-1.76c-.23.13-.56.33-.73.53-.26.29-.32.59-.32.82 0 .3.16.55.33.7.22.2.53.3.89.3.6 0 1.1-.33 1.4-.59Zm-1.51-4.86c0 .26.1.46.23.67.2.3.5.58.52.6.21-.11.49-.32.64-.5.16-.18.28-.46.28-.74 0-.25-.1-.45-.23-.59a.9.9 0 0 0-.61-.22.85.85 0 0 0-.57.2.76.76 0 0 0-.26.58Zm10.34-2.01h2.77c.5 0 1.61.02 2.32.69.58.56.65 1.32.65 1.71 0 .36-.05.77-.3 1.16-.23.38-.54.57-.76.67.44.07.93.28 1.25.61.3.3.59.82.59 1.62 0 .91-.36 1.48-.71 1.84-.75.72-1.84.77-2.4.77H241V62.8Zm2.07 1.63v2.05h.34c.28 0 .76-.04 1.06-.25.19-.14.37-.41.37-.8 0-.4-.2-.65-.36-.77-.3-.23-.7-.23-1.09-.23h-.32Zm0 3.6v2.21h.5c.53 0 1.17-.01 1.55-.37a1 1 0 0 0 .3-.76.97.97 0 0 0-.28-.73c-.37-.34-1.08-.34-1.5-.34h-.57Zm6.01-5.23h2.1v7.3h2.81v1.77h-4.91V62.8Zm10.34-.2c1.42 0 2.6.43 3.51 1.31a4.72 4.72 0 0 1 1.42 3.43 4.7 4.7 0 0 1-4.93 4.74 5 5 0 0 1-3.54-1.33 4.64 4.64 0 0 1-1.41-3.38c0-1.3.58-2.63 1.4-3.45a4.87 4.87 0 0 1 3.55-1.33Zm-.01 1.92c-.8 0-1.5.29-1.99.78-.4.38-.8 1.05-.8 2.06a2.7 2.7 0 0 0 2.77 2.79c.93 0 1.58-.34 2.02-.78.35-.34.79-.98.79-2.03 0-.94-.38-1.63-.79-2.04a2.91 2.91 0 0 0-2-.78Zm10.87 4.09v-1.69h4.5v.1c0 1.1-.39 2.77-1.4 3.82a4.17 4.17 0 0 1-3.24 1.24 4.27 4.27 0 0 1-3.32-1.27 4.81 4.81 0 0 1-1.33-3.45c0-1.49.54-2.67 1.3-3.45a4.67 4.67 0 0 1 3.57-1.32c.75 0 1.7.12 2.55.68.6.41 1.14 1.05 1.47 1.62l-1.9 1.02a2.76 2.76 0 0 0-.8-.98c-.4-.3-.87-.43-1.39-.43-.83 0-1.44.27-1.88.73-.5.53-.77 1.3-.77 2.15 0 1.04.38 1.7.76 2.09.53.54 1.14.7 1.84.7.9 0 1.37-.31 1.58-.49.07-.05.47-.4.65-1.07h-2.2Z"/>
    <g clip-path="url(#c)">
      <path fill="#fff" d="M53.48 55.3h-11V28.89h10.21c1.9 0 4.16.28 5.78 2.06.91.99 1.62 2.61 1.62 4.95 0 1.15-.2 2.13-.75 3.24a4.16 4.16 0 0 1-2.14 2.06c1.39.16 2.77.8 3.6 1.59 1.07 1.03 1.79 2.73 1.79 4.83 0 2.49-.95 4.2-1.94 5.18-1.43 1.47-3.92 2.5-7.17 2.5Zm-4.16-21.14v5.14h1.27c.71 0 1.9-.08 2.61-.83.44-.44.64-1.15.64-1.74 0-.67-.24-1.35-.64-1.78-.43-.44-1.26-.8-2.6-.8h-1.28Zm0 10.25v5.54h1.55c1.9 0 3.48-.2 4.23-1.07.32-.35.56-.95.56-1.7 0-.83-.28-1.5-.67-1.9-.84-.83-2.54-.87-4.24-.87h-1.43Zm15.65-15.52h6.85v26.4h-6.85V28.9Zm23.1 16.79v-5.35h13.62c0 5.23-1.07 8.95-4.24 11.88-2.77 2.57-5.94 3.32-9.3 3.32-4.75 0-8-1.74-10.14-3.92a13.3 13.3 0 0 1-3.8-9.54c0-4.2 1.67-7.64 3.96-9.9 2.18-2.17 5.58-3.87 10.26-3.87 2.45 0 5.1.55 7.12 1.78a12.94 12.94 0 0 1 4.71 5.42l-6.53 2.7a6.46 6.46 0 0 0-1.9-2.66 5.54 5.54 0 0 0-3.68-1.3c-1.62 0-3.29.59-4.51 1.82-1.55 1.54-2.3 4-2.3 6.05 0 2.42.87 4.4 2.1 5.7a6.25 6.25 0 0 0 4.83 2.02c1.19 0 2.57-.2 3.8-1.22a4.7 4.7 0 0 0 1.62-2.93h-5.62Zm34.28 9.62h-11V28.89h10.2c1.9 0 4.16.28 5.79 2.06.9.99 1.62 2.61 1.62 4.95 0 1.15-.2 2.13-.75 3.24a4.16 4.16 0 0 1-2.14 2.06c1.39.16 2.77.8 3.6 1.59 1.07 1.03 1.78 2.73 1.78 4.83 0 2.49-.95 4.2-1.94 5.18-1.42 1.47-3.92 2.5-7.16 2.5Zm-4.16-21.14v5.14h1.27c.71 0 1.9-.08 2.61-.83.44-.44.63-1.15.63-1.74 0-.67-.23-1.35-.63-1.78-.43-.44-1.27-.8-2.61-.8h-1.27Zm0 10.25v5.54h1.55c1.9 0 3.48-.2 4.23-1.07.32-.35.56-.95.56-1.7 0-.83-.28-1.5-.68-1.9-.83-.83-2.53-.87-4.23-.87h-1.43Zm15.65-15.52h6.84v20.59h8.24v5.82h-15.08V28.89Zm15.14 0h6.85v15.64c0 1.1.04 2.8 1.35 4.08.8.75 2.06 1.26 3.25 1.26 1.18 0 2.41-.47 3.16-1.15 1.59-1.38 1.55-3.32 1.55-4.79V28.9h6.85v15.16c0 2.77-.12 5.66-2.97 8.55-2.22 2.26-5 3.29-8.71 3.29-4.16 0-7.13-1.42-8.75-3.17-2.3-2.5-2.58-5.86-2.58-8.67V28.9Zm41.56 0v5.82h-8.15v4.4h7.72v5.81h-7.72v4.56h8.15v5.82h-15V28.89h15Zm20.66 26.4h-11.01V28.9h10.21c1.9 0 4.16.28 5.78 2.06.91.99 1.63 2.61 1.63 4.95 0 1.15-.2 2.13-.76 3.24a4.16 4.16 0 0 1-2.13 2.06c1.38.16 2.77.8 3.6 1.59 1.07 1.03 1.78 2.73 1.78 4.83 0 2.49-.95 4.2-1.94 5.18-1.43 1.47-3.92 2.5-7.17 2.5Zm-4.16-21.13v5.14h1.26c.72 0 1.9-.08 2.62-.83.43-.44.63-1.15.63-1.74 0-.67-.24-1.35-.63-1.78-.44-.44-1.27-.8-2.62-.8h-1.26Zm0 10.25v5.54h1.54c1.9 0 3.49-.2 4.24-1.07.31-.35.55-.95.55-1.7 0-.83-.28-1.5-.67-1.9-.83-.83-2.53-.87-4.24-.87h-1.42Zm43.6-2.3a13.7 13.7 0 0 1-4.16 9.86c-2.7 2.57-6.5 3.92-10.42 3.92-3.91 0-7.72-1.35-10.4-3.92a13.7 13.7 0 0 1-4.16-9.86c0-3.52 1.34-7.24 4.15-9.9 2.7-2.57 6.5-3.91 10.41-3.91 3.92 0 7.72 1.34 10.42 3.92a13.66 13.66 0 0 1 4.15 9.9Zm-14.58-7.16a7.6 7.6 0 0 0-5.34 2.1 7.24 7.24 0 0 0-2.1 5.18c0 2.34 1.11 3.96 2.1 4.91a7.5 7.5 0 0 0 5.34 2.1c2.34 0 4.08-.83 5.3-2.06a7.27 7.27 0 0 0 2.15-5.07c0-2.06-.91-3.88-2.14-5.06a7.9 7.9 0 0 0-5.3-2.1Zm12.22 20.35 10.34-14.1-8.48-12.31h8.48l3.91 6.85 4.08-6.85h8.44l-8.6 12.31 9.98 14.1h-8.31l-5.63-8.6-5.93 8.6h-8.28Z"/>
    </g>
    <path fill="#fff" d="M48.58 14.88h-1.97v7.3h-2.1v-7.3h-1.97V13.1h6.04v1.77Zm3.2-1.77v3.46h3.62V13.1h2.1v9.08h-2.1v-3.85h-3.62v3.85h-2.1V13.1h2.1Zm12.83 0v1.77h-3.03v1.75h2.88v1.77h-2.88v2.02h3.03v1.77h-5.13V13.1h5.13Zm4.88 0h2.87c1.2 0 2.47.18 3.58 1.25.8.78 1.3 1.84 1.3 3.25 0 1.43-.48 2.47-1.23 3.22a4.9 4.9 0 0 1-3.58 1.36h-2.94V13.1Zm2.1 1.77v5.54h.55c.44 0 1.4-.04 2.07-.61.5-.41.89-1.19.89-2.2 0-.98-.4-1.6-.75-1.96a3 3 0 0 0-2.2-.77h-.56Zm11.75-1.98c1.42 0 2.6.44 3.51 1.32a4.72 4.72 0 0 1 1.42 3.44 4.7 4.7 0 0 1-4.93 4.73 5 5 0 0 1-3.54-1.33 4.64 4.64 0 0 1-1.41-3.38c0-1.3.58-2.63 1.4-3.44a4.87 4.87 0 0 1 3.55-1.34Zm-.01 1.94c-.8 0-1.5.28-1.99.77-.4.38-.8 1.05-.8 2.06a2.7 2.7 0 0 0 2.77 2.79c.93 0 1.58-.34 2.02-.78.35-.34.79-.98.79-2.02 0-.94-.38-1.64-.8-2.05a2.91 2.91 0 0 0-2-.77Zm13.06 4.65v2.41c-.8.41-1.46.5-2 .5-1.68 0-2.8-.58-3.57-1.33a4.75 4.75 0 0 1-1.41-3.44c0-1.43.6-2.63 1.41-3.42.8-.78 1.98-1.3 3.4-1.3.6 0 1.29.12 2.17.5v2.42a2.88 2.88 0 0 0-2.12-.97c-.77 0-1.38.25-1.85.71a2.9 2.9 0 0 0-.86 2.1c0 .94.38 1.6.79 2 .19.19.84.76 1.96.76.54 0 1.28-.15 2.08-.94Zm6.84-4.61h-1.97v7.3h-2.1v-7.3h-1.97V13.1h6.04v1.77Zm5.37-1.98c1.42 0 2.6.44 3.51 1.32a4.73 4.73 0 0 1 1.42 3.44 4.7 4.7 0 0 1-4.93 4.73 5 5 0 0 1-3.54-1.33 4.64 4.64 0 0 1-1.42-3.38c0-1.3.59-2.63 1.4-3.44a4.87 4.87 0 0 1 3.56-1.34Zm-.01 1.94c-.8 0-1.5.28-2 .77-.39.38-.8 1.05-.8 2.06a2.71 2.71 0 0 0 2.78 2.79c.93 0 1.58-.34 2.02-.78.35-.34.79-.98.79-2.02 0-.94-.38-1.64-.8-2.05a2.91 2.91 0 0 0-2-.77Zm6.5-1.73h3.18c1.16 0 1.88.38 2.32.79.38.37.79 1.02.79 2.03 0 .57-.13 1.28-.71 1.85-.31.3-.76.57-1.27.7l2.8 3.7h-2.57l-2.45-3.57v3.58h-2.1V13.1Zm2.1 1.63v2.5h.47c.38 0 .9-.05 1.25-.4.15-.15.34-.44.34-.89 0-.51-.24-.79-.42-.92-.34-.26-.88-.29-1.16-.29h-.49Zm8.4-1.63h2.18l1.94 6.02 1.93-6.02h1.44l1.93 6.02 1.94-6.02h2.18l-3.1 9.08h-1.77l-1.9-5.52-1.9 5.52h-1.78l-3.09-9.08Zm16.68 0v3.46h3.62V13.1h2.1v9.08h-2.1v-3.85h-3.62v3.85h-2.1V13.1h2.1Zm12.23-.2c1.42 0 2.6.43 3.51 1.31a4.72 4.72 0 0 1 1.42 3.44 4.7 4.7 0 0 1-4.93 4.73 5 5 0 0 1-3.54-1.33 4.63 4.63 0 0 1-1.41-3.38c0-1.3.58-2.63 1.4-3.44a4.87 4.87 0 0 1 3.55-1.34Zm-.01 1.93c-.79 0-1.5.28-1.99.77-.4.38-.8 1.05-.8 2.06a2.7 2.7 0 0 0 2.78 2.79c.92 0 1.58-.34 2.01-.78.35-.34.79-.98.79-2.02 0-.94-.38-1.64-.79-2.05a2.91 2.91 0 0 0-2-.77Z"/>
    <path fill="#4C83F6" d="M165.87 13.19h110.69v4.54H165.87z"/>
  </g>
  <defs>
    <clipPath id="a">
      <path fill="#fff" d="M0 .82h276v71.35H0z"/>
    </clipPath>
    <clipPath id="b">
      <path fill="#fff" d="M0 .82h33.35v71.35H0z"/>
    </clipPath>
    <clipPath id="c">
      <path fill="#fff" d="M39.7 28.62h236.75V56.4H39.7z"/>
    </clipPath>
  </defs>
</svg>
