<svg xmlns="http://www.w3.org/2000/svg" width="2433" height="629" fill="none"><g clip-path="url(#a)"><g clip-path="url(#b)"><g fill="#4C83F6" clip-path="url(#c)"><path fill-rule="evenodd" d="M283.476 108.153 1.839 206.83l-1.84.023.024 43.43h21.681V629h261.772V108.153ZM129.588 406.938l-63.65 9.236.023 100.607 63.651-3.831-.024-106.012Zm120.938-54.944-97.999 15.722-.024-121.828 97.999-24.018.024 130.124ZM54.504 384.331l87.108-14.312-.024-121.358-87.108 23.101.024 112.569ZM195.69 484.655c14.829-1.01 27.158-15.44 27.158-32.172 0-16.733-12.329-28.742-27.181-26.838-14.357 1.833-25.72 16.122-25.72 32.008 0 15.887 11.363 27.966 25.743 27.002Z" clip-rule="evenodd"/><path d="m294 90.145-64.479 22.99V24.417L294 0"/></g><path fill="#4C83F6" d="M369 589h1065.35v40H369z"/><path fill="#fff" d="M2393.1 584.3h38.9c0 4-.17 7.633-.5 10.9-.33 3.267-1 6.3-2 9.1-1.4 3.933-3.3 7.433-5.7 10.5-2.4 3-5.23 5.533-8.5 7.6-3.2 2-6.73 3.533-10.6 4.6-3.87 1.067-7.93 1.6-12.2 1.6-5.87 0-11.23-.967-16.1-2.9-4.8-1.933-8.93-4.633-12.4-8.1-3.47-3.533-6.17-7.733-8.1-12.6-1.93-4.933-2.9-10.367-2.9-16.3 0-5.867.93-11.233 2.8-16.1 1.93-4.933 4.63-9.133 8.1-12.6 3.53-3.467 7.77-6.167 12.7-8.1 4.93-1.933 10.43-2.9 16.5-2.9 7.87 0 14.77 1.7 20.7 5.1 5.93 3.4 10.63 8.667 14.1 15.8l-18.6 7.7c-1.73-4.133-4-7.1-6.8-8.9-2.73-1.8-5.87-2.7-9.4-2.7-2.93 0-5.6.567-8 1.7-2.4 1.067-4.47 2.633-6.2 4.7-1.67 2-3 4.433-4 7.3-.93 2.867-1.4 6.067-1.4 9.6 0 3.2.4 6.167 1.2 8.9.87 2.733 2.13 5.1 3.8 7.1s3.73 3.567 6.2 4.7c2.47 1.067 5.33 1.6 8.6 1.6 1.93 0 3.8-.2 5.6-.6 1.8-.467 3.4-1.167 4.8-2.1 1.47-1 2.67-2.267 3.6-3.8.93-1.533 1.57-3.4 1.9-5.6h-16.1v-15.2ZM2283.02 588.8c0 3 .57 5.767 1.7 8.3a20.994 20.994 0 0 0 4.6 6.6c1.93 1.867 4.17 3.333 6.7 4.4 2.6 1 5.33 1.5 8.2 1.5 2.87 0 5.57-.5 8.1-1.5 2.6-1.067 4.87-2.533 6.8-4.4a20.19 20.19 0 0 0 4.7-6.6c1.13-2.533 1.7-5.3 1.7-8.3 0-3-.57-5.767-1.7-8.3a20.19 20.19 0 0 0-4.7-6.6c-1.93-1.867-4.2-3.3-6.8-4.3-2.53-1.067-5.23-1.6-8.1-1.6-2.87 0-5.6.533-8.2 1.6-2.53 1-4.77 2.433-6.7 4.3a20.994 20.994 0 0 0-4.6 6.6c-1.13 2.533-1.7 5.3-1.7 8.3Zm-20.5 0c0-5.6 1.03-10.8 3.1-15.6 2.07-4.867 4.93-9.1 8.6-12.7 3.67-3.6 8.03-6.4 13.1-8.4 5.13-2.067 10.77-3.1 16.9-3.1 6.07 0 11.67 1.033 16.8 3.1 5.13 2 9.53 4.8 13.2 8.4 3.73 3.6 6.63 7.833 8.7 12.7 2.07 4.8 3.1 10 3.1 15.6s-1.03 10.833-3.1 15.7c-2.07 4.8-4.97 9-8.7 12.6-3.67 3.6-8.07 6.433-13.2 8.5-5.13 2-10.73 3-16.8 3-6.13 0-11.77-1-16.9-3-5.07-2.067-9.43-4.9-13.1-8.5-3.67-3.6-6.53-7.8-8.6-12.6-2.07-4.867-3.1-10.1-3.1-15.7ZM2235.76 551.1v58.8h23.5v16.6h-43.1v-75.4h19.6ZM2168.52 611.3h4.3c4.94 0 8.47-.633 10.6-1.9 2.14-1.267 3.2-3.3 3.2-6.1s-1.06-4.833-3.2-6.1c-2.13-1.267-5.66-1.9-10.6-1.9h-4.3v16Zm0-30.6h3.6c6.14 0 9.2-2.433 9.2-7.3s-3.06-7.3-9.2-7.3h-3.6v14.6Zm-19.6-29.6h29.2c6.94 0 12.2 1.667 15.8 5 3.6 3.333 5.4 8.133 5.4 14.4 0 3.8-.7 6.967-2.1 9.5-1.33 2.467-3.4 4.567-6.2 6.3 2.8.533 5.17 1.367 7.1 2.5 2 1.067 3.6 2.4 4.8 4 1.27 1.6 2.17 3.4 2.7 5.4.54 2 .8 4.133.8 6.4 0 3.533-.63 6.667-1.9 9.4-1.2 2.733-2.93 5.033-5.2 6.9-2.2 1.867-4.9 3.267-8.1 4.2-3.2.933-6.8 1.4-10.8 1.4h-31.5v-75.4ZM2065.49 578.6c4.67-2.8 7-5.933 7-9.4 0-1.867-.63-3.467-1.9-4.8-1.2-1.4-2.76-2.1-4.7-2.1-1.8 0-3.3.6-4.5 1.8-1.2 1.2-1.8 2.7-1.8 4.5 0 2.4 1.97 5.733 5.9 10Zm-8.1 16.4c-4.73 2.933-7.1 5.867-7.1 8.8 0 1.067.24 2.067.7 3a7.84 7.84 0 0 0 1.9 2.3c.8.6 1.7 1.1 2.7 1.5 1.07.333 2.2.5 3.4.5 3.34 0 6.77-1.1 10.3-3.3l-11.9-12.8Zm26.2 2.7c4-3.8 7.27-7.4 9.8-10.8l11.1 10.7a56.787 56.787 0 0 1-3.9 4.7 83.656 83.656 0 0 1-4.9 4.9l-1.5 1.4 16.8 17.9h-24.4l-6.6-6.9c-9 6-17.63 9-25.9 9-3.53 0-6.76-.533-9.7-1.6-2.93-1.067-5.46-2.567-7.6-4.5-2.13-1.933-3.8-4.2-5-6.8-1.2-2.667-1.8-5.567-1.8-8.7 0-2.8.37-5.267 1.1-7.4.8-2.2 2.14-4.3 4-6.3a23.249 23.249 0 0 1 4.6-3.9c1.74-1.133 3.84-2.267 6.3-3.4l2.1-1-1.3-1.5c-3.86-4.867-5.8-9.5-5.8-13.9 0-2.933.6-5.667 1.8-8.2 1.2-2.533 2.84-4.7 4.9-6.5 2.14-1.867 4.64-3.3 7.5-4.3 2.87-1.067 5.97-1.6 9.3-1.6 3.4 0 6.54.533 9.4 1.6 2.87 1 5.34 2.433 7.4 4.3 2.14 1.867 3.77 4.067 4.9 6.6 1.2 2.467 1.8 5.167 1.8 8.1 0 2-.23 3.833-.7 5.5-.46 1.6-1.26 3.133-2.4 4.6-1.06 1.4-2.5 2.767-4.3 4.1-1.73 1.267-3.9 2.567-6.5 3.9l9.5 10ZM1981.7 567.7v58.8h-19.6v-58.8H1943v-16.6h57.8v16.6h-19.1ZM1928.25 570.4c-2.13-1.733-4.26-3-6.4-3.8-2.13-.867-4.2-1.3-6.2-1.3-2.53 0-4.6.6-6.2 1.8-1.6 1.2-2.4 2.767-2.4 4.7 0 1.333.4 2.433 1.2 3.3.8.867 1.84 1.633 3.1 2.3 1.34.6 2.8 1.133 4.4 1.6 1.67.467 3.3.967 4.9 1.5 6.4 2.133 11.07 5 14 8.6 3 3.533 4.5 8.167 4.5 13.9 0 3.867-.66 7.367-2 10.5a21.452 21.452 0 0 1-5.7 8.1c-2.46 2.2-5.53 3.9-9.2 5.1-3.6 1.267-7.7 1.9-12.3 1.9-9.53 0-18.36-2.833-26.5-8.5l8.4-15.8c2.94 2.6 5.84 4.533 8.7 5.8 2.87 1.267 5.7 1.9 8.5 1.9 3.2 0 5.57-.733 7.1-2.2 1.6-1.467 2.4-3.133 2.4-5 0-1.133-.2-2.1-.6-2.9-.4-.867-1.06-1.633-2-2.3-.93-.733-2.16-1.4-3.7-2-1.46-.6-3.26-1.267-5.4-2-2.53-.8-5.03-1.667-7.5-2.6-2.4-1-4.56-2.3-6.5-3.9-1.86-1.6-3.4-3.6-4.6-6-1.13-2.467-1.7-5.567-1.7-9.3 0-3.733.6-7.1 1.8-10.1 1.27-3.067 3-5.667 5.2-7.8 2.27-2.2 5-3.9 8.2-5.1 3.27-1.2 6.9-1.8 10.9-1.8 3.74 0 7.64.533 11.7 1.6 4.07 1 7.97 2.5 11.7 4.5l-7.8 15.3ZM1849.68 598.5l-8.8-25.1-8.8 25.1h17.6Zm5.2 14.9h-28l-4.5 13.1h-20.9l28.7-75.4h21.4l28.7 75.4h-20.9l-4.5-13.1Z"/><path fill="#fff" fill-rule="evenodd" d="M1757 597.342c-1.07-2.546-1.6-5.327-1.6-8.342 0-3.015.53-5.796 1.6-8.342 1.08-2.546 2.53-4.757 4.36-6.633a19.009 19.009 0 0 1 6.33-4.321 19.214 19.214 0 0 1 7.76-1.609c2.71 0 5.27.536 7.67 1.609a18.823 18.823 0 0 1 6.43 4.321c.23.231.46.467.68.708l10.6-16.965c-2.79-2.308-5.95-4.192-9.48-5.652-4.86-2.077-10.16-3.116-15.9-3.116-5.8 0-11.13 1.039-15.99 3.116-4.79 2.01-8.92 4.824-12.39 8.442-3.47 3.618-6.18 7.872-8.14 12.764-1.95 4.824-2.93 10.05-2.93 15.678s.98 10.888 2.93 15.779c1.96 4.824 4.67 9.045 8.14 12.663 3.47 3.618 7.6 6.466 12.39 8.543 4.86 2.01 10.19 3.015 15.99 3.015 5.74 0 11.04-1.005 15.9-3.015 3.65-1.562 6.91-3.56 9.78-5.994l-10.16-17.581c-.44.545-.92 1.067-1.42 1.565a20.103 20.103 0 0 1-6.43 4.422c-2.4 1.005-4.96 1.508-7.67 1.508s-5.3-.503-7.76-1.508a20.35 20.35 0 0 1-6.33-4.422c-1.83-1.876-3.28-4.087-4.36-6.633Z" clip-rule="evenodd"/><path fill="#fff" d="M1685.21 609.9h4.5c3.4 0 6.43-.533 9.1-1.6 2.66-1.067 4.9-2.533 6.7-4.4 1.86-1.867 3.26-4.067 4.2-6.6 1-2.6 1.5-5.433 1.5-8.5 0-3-.5-5.8-1.5-8.4-1-2.6-2.44-4.833-4.3-6.7-1.8-1.867-4.04-3.333-6.7-4.4-2.67-1.067-5.67-1.6-9-1.6h-4.5v42.2Zm-19.6-58.8h29c5.13 0 9.93 1.033 14.4 3.1 4.53 2.067 8.46 4.833 11.8 8.3 3.4 3.4 6.06 7.4 8 12 1.93 4.533 2.9 9.3 2.9 14.3 0 4.933-.97 9.7-2.9 14.3-1.87 4.533-4.5 8.533-7.9 12-3.34 3.467-7.27 6.233-11.8 8.3-4.47 2.067-9.3 3.1-14.5 3.1h-29v-75.4ZM1592.23 588.8c0 3 .56 5.767 1.7 8.3 1.13 2.533 2.66 4.733 4.6 6.6a21.528 21.528 0 0 0 6.7 4.4c2.6 1 5.33 1.5 8.2 1.5 2.86 0 5.56-.5 8.1-1.5 2.6-1.067 4.86-2.533 6.8-4.4 2-1.867 3.56-4.067 4.7-6.6 1.13-2.533 1.7-5.3 1.7-8.3 0-3-.57-5.767-1.7-8.3-1.14-2.533-2.7-4.733-4.7-6.6-1.94-1.867-4.2-3.3-6.8-4.3-2.54-1.067-5.24-1.6-8.1-1.6-2.87 0-5.6.533-8.2 1.6-2.54 1-4.77 2.433-6.7 4.3-1.94 1.867-3.47 4.067-4.6 6.6-1.14 2.533-1.7 5.3-1.7 8.3Zm-20.5 0c0-5.6 1.03-10.8 3.1-15.6 2.06-4.867 4.93-9.1 8.6-12.7 3.66-3.6 8.03-6.4 13.1-8.4 5.13-2.067 10.76-3.1 16.9-3.1 6.06 0 11.66 1.033 16.8 3.1 5.13 2 9.53 4.8 13.2 8.4 3.73 3.6 6.63 7.833 8.7 12.7 2.06 4.8 3.1 10 3.1 15.6s-1.04 10.833-3.1 15.7c-2.07 4.8-4.97 9-8.7 12.6-3.67 3.6-8.07 6.433-13.2 8.5-5.14 2-10.74 3-16.8 3-6.14 0-11.77-1-16.9-3-5.07-2.067-9.44-4.9-13.1-8.5-3.67-3.6-6.54-7.8-8.6-12.6-2.07-4.867-3.1-10.1-3.1-15.7ZM1528.95 585.7h6.5c7.2 0 10.8-3.133 10.8-9.4s-3.6-9.4-10.8-9.4h-6.5v18.8Zm0 40.8h-19.6v-75.4h31.2c8.47 0 14.94 2.2 19.4 6.6 4.54 4.4 6.8 10.6 6.8 18.6 0 8-2.26 14.2-6.8 18.6-4.46 4.4-10.93 6.6-19.4 6.6h-11.6v25Z"/><g clip-path="url(#d)"><path fill="#fff" d="M429.425 436.336h13.201c15.145 0 25.993-1.944 32.542-5.833 6.549-3.889 9.824-10.131 9.824-18.727s-3.275-14.838-9.824-18.727c-6.549-3.889-17.397-5.833-32.542-5.833h-13.201v49.12Zm0-93.942h11.052c18.829 0 28.244-7.47 28.244-22.411 0-14.941-9.415-22.411-28.244-22.411h-11.052v44.822Zm-60.172-90.872h89.644c21.285 0 37.454 5.117 48.506 15.35s16.578 24.969 16.578 44.208c0 11.666-2.149 21.388-6.447 29.165-4.093 7.573-10.438 14.02-19.034 19.341 8.596 1.637 15.862 4.196 21.797 7.675 6.14 3.275 11.052 7.368 14.736 12.28 3.889 4.912 6.652 10.438 8.289 16.578 1.637 6.14 2.456 12.689 2.456 19.648 0 10.847-1.944 20.467-5.833 28.858-3.684 8.391-9.005 15.452-15.964 21.183-6.754 5.731-15.043 10.029-24.867 12.894-9.824 2.865-20.876 4.298-33.156 4.298h-96.705V251.522Zm251.244 0V483h-60.172V251.522h60.172Zm136.466 101.924h119.423c0 12.28-.512 23.434-1.535 33.463s-3.07 19.341-6.14 27.937c-4.298 12.075-10.131 22.82-17.499 32.235-7.368 9.21-16.066 16.987-26.095 23.332-9.824 6.14-20.671 10.847-32.542 14.122-11.871 3.275-24.355 4.912-37.454 4.912-18.011 0-34.486-2.968-49.427-8.903-14.736-5.935-27.425-14.224-38.068-24.867-10.643-10.847-18.932-23.741-24.867-38.682-5.936-15.145-8.903-31.826-8.903-50.041 0-18.011 2.865-34.486 8.596-49.427 5.935-15.145 14.224-28.039 24.867-38.682 10.847-10.643 23.844-18.932 38.989-24.867 15.145-5.935 32.03-8.903 50.655-8.903 24.151 0 45.334 5.219 63.549 15.657 18.215 10.438 32.644 26.607 43.287 48.506l-57.102 23.639c-5.321-12.689-12.28-21.797-20.876-27.323-8.391-5.526-18.011-8.289-28.858-8.289-9.005 0-17.192 1.74-24.56 5.219-7.368 3.275-13.713 8.084-19.034 14.429-5.117 6.14-9.21 13.61-12.28 22.411-2.866 8.801-4.298 18.625-4.298 29.472 0 9.824 1.228 18.932 3.684 27.323 2.661 8.391 6.549 15.657 11.666 21.797 5.117 6.14 11.461 10.95 19.034 14.429 7.573 3.275 16.373 4.912 26.402 4.912 5.935 0 11.666-.614 17.192-1.842 5.526-1.433 10.438-3.582 14.736-6.447 4.503-3.07 8.186-6.959 11.052-11.666 2.865-4.707 4.81-10.438 5.833-17.192h-49.427v-46.664Zm278.977 82.89h13.2c15.15 0 26-1.944 32.54-5.833 6.55-3.889 9.83-10.131 9.83-18.727s-3.28-14.838-9.83-18.727c-6.54-3.889-17.39-5.833-32.54-5.833h-13.2v49.12Zm0-93.942h11.05c18.83 0 28.25-7.47 28.25-22.411 0-14.941-9.42-22.411-28.25-22.411h-11.05v44.822Zm-60.17-90.872h89.64c21.29 0 37.46 5.117 48.51 15.35 11.05 10.233 16.58 24.969 16.58 44.208 0 11.666-2.15 21.388-6.45 29.165-4.09 7.573-10.44 14.02-19.03 19.341 8.59 1.637 15.86 4.196 21.79 7.675 6.14 3.275 11.06 7.368 14.74 12.28 3.89 4.912 6.65 10.438 8.29 16.578 1.64 6.14 2.45 12.689 2.45 19.648 0 10.847-1.94 20.467-5.83 28.858-3.68 8.391-9 15.452-15.96 21.183-6.76 5.731-15.05 10.029-24.87 12.894S1084.75 483 1072.47 483h-96.7V251.522Zm251.24 0v180.516h72.15V483h-132.32V251.522h60.17Zm137.71 0v125.87c0 6.754.2 13.713.61 20.876.62 6.959 2.15 13.303 4.61 19.034 2.66 5.731 6.75 10.438 12.28 14.122 5.52 3.479 13.3 5.219 23.33 5.219 10.03 0 17.7-1.74 23.03-5.219 5.52-3.684 9.62-8.391 12.28-14.122s4.19-12.075 4.6-19.034c.61-7.163.92-14.122.92-20.876v-125.87h59.87v134.159c0 36.021-8.29 62.321-24.87 78.899-16.37 16.578-41.65 24.867-75.83 24.867s-59.56-8.289-76.14-24.867c-16.57-16.578-24.86-42.878-24.86-78.899V251.522h60.17Zm300.38 50.962h-71.53v38.682h67.54v50.962h-67.54v39.91h71.53V483h-131.71V251.522h131.71v50.962ZM1830 436.336h13.21c15.14 0 25.99-1.944 32.54-5.833 6.55-3.889 9.82-10.131 9.82-18.727s-3.27-14.838-9.82-18.727c-6.55-3.889-17.4-5.833-32.54-5.833H1830v49.12Zm0-93.942h11.06c18.83 0 28.24-7.47 28.24-22.411 0-14.941-9.41-22.411-28.24-22.411H1830v44.822Zm-60.17-90.872h89.65c21.28 0 37.45 5.117 48.5 15.35 11.05 10.233 16.58 24.969 16.58 44.208 0 11.666-2.15 21.388-6.45 29.165-4.09 7.573-10.43 14.02-19.03 19.341 8.6 1.637 15.86 4.196 21.8 7.675 6.14 3.275 11.05 7.368 14.73 12.28 3.89 4.912 6.65 10.438 8.29 16.578 1.64 6.14 2.46 12.689 2.46 19.648 0 10.847-1.95 20.467-5.84 28.858-3.68 8.391-9 15.452-15.96 21.183-6.75 5.731-15.04 10.029-24.87 12.894-9.82 2.865-20.87 4.298-33.15 4.298h-96.71V251.522Zm241.77 115.739c0 9.21 1.74 17.704 5.22 25.481 3.48 7.777 8.19 14.531 14.12 20.262 5.94 5.731 12.79 10.233 20.57 13.508 7.98 3.07 16.38 4.605 25.18 4.605s17.09-1.535 24.86-4.605c7.99-3.275 14.94-7.777 20.88-13.508 6.14-5.731 10.95-12.485 14.43-20.262 3.48-7.777 5.22-16.271 5.22-25.481s-1.74-17.704-5.22-25.481c-3.48-7.777-8.29-14.531-14.43-20.262-5.94-5.731-12.89-10.131-20.88-13.201-7.77-3.275-16.06-4.912-24.86-4.912s-17.2 1.637-25.18 4.912c-7.78 3.07-14.63 7.47-20.57 13.201-5.93 5.731-10.64 12.485-14.12 20.262-3.48 7.777-5.22 16.271-5.22 25.481Zm-62.93 0c0-17.192 3.17-33.156 9.51-47.892 6.35-14.941 15.15-27.937 26.41-38.989 11.25-11.052 24.66-19.648 40.21-25.788 15.76-6.345 33.06-9.517 51.89-9.517 18.62 0 35.81 3.172 51.57 9.517 15.76 6.14 29.27 14.736 40.53 25.788 11.46 11.052 20.36 24.048 26.71 38.989 6.34 14.736 9.51 30.7 9.51 47.892 0 17.192-3.17 33.258-9.51 48.199-6.35 14.736-15.25 27.63-26.71 38.682-11.26 11.052-24.77 19.75-40.53 26.095-15.76 6.14-32.95 9.21-51.57 9.21-18.83 0-36.13-3.07-51.89-9.21-15.55-6.345-28.96-15.043-40.21-26.095-11.26-11.052-20.06-23.946-26.41-38.682-6.34-14.941-9.51-31.007-9.51-48.199Zm327.48-7.675L2204 251.522h74.3l31.31 59.865 38.68-59.865h74.3l-76.44 108.064L2432.41 483h-73.37l-46.36-75.522L2258.34 483h-72.76l90.57-123.414Z"/></g><path fill="url(#e)" d="M1273.25 145.8c0 3 .56 5.767 1.7 8.3 1.13 2.533 2.66 4.733 4.6 6.6a21.528 21.528 0 0 0 6.7 4.4c2.6 1 5.33 1.5 8.2 1.5 2.86 0 5.56-.5 8.1-1.5 2.6-1.067 4.86-2.533 6.8-4.4 2-1.867 3.56-4.067 4.7-6.6 1.13-2.533 1.7-5.3 1.7-8.3 0-3-.57-5.767-1.7-8.3-1.14-2.533-2.7-4.733-4.7-6.6-1.94-1.867-4.2-3.3-6.8-4.3-2.54-1.067-5.24-1.6-8.1-1.6-2.87 0-5.6.533-8.2 1.6-2.54 1-4.77 2.433-6.7 4.3-1.94 1.867-3.47 4.067-4.6 6.6-1.14 2.533-1.7 5.3-1.7 8.3Zm-20.5 0c0-5.6 1.03-10.8 3.1-15.6 2.06-4.867 4.93-9.1 8.6-12.7 3.66-3.6 8.03-6.4 13.1-8.4 5.13-2.067 10.76-3.1 16.9-3.1 6.06 0 11.66 1.033 16.8 3.1 5.13 2 9.53 4.8 13.2 8.4 3.73 3.6 6.63 7.833 8.7 12.7 2.06 4.8 3.1 10 3.1 15.6s-1.04 10.833-3.1 15.7c-2.07 4.8-4.97 9-8.7 12.6-3.67 3.6-8.07 6.433-13.2 8.5-5.14 2-10.74 3-16.8 3-6.14 0-11.77-1-16.9-3-5.07-2.067-9.44-4.9-13.1-8.5-3.67-3.6-6.54-7.8-8.6-12.6-2.07-4.867-3.1-10.1-3.1-15.7Z"/><path fill="url(#f)" d="M1194.45 137.2h28.3v-29.1h19.6v75.4h-19.6v-31.1h-28.3v31.1h-19.6v-75.4h19.6v29.1Z"/><path fill="url(#g)" d="m1074.8 108.1 13 48.7 16-48.7h15.6l16 48.7 13-48.7h20.5l-22.5 75.4h-20l-14.8-43.7-14.8 43.7h-20l-22.5-75.4h20.5Z"/><path fill="url(#h)" d="M989.915 141.8h3.7c3.867 0 6.835-.8 8.895-2.4 2.07-1.6 3.1-3.9 3.1-6.9 0-3-1.03-5.3-3.1-6.9-2.06-1.6-5.028-2.4-8.895-2.4h-3.7v18.6Zm43.095 41.7h-24.4l-18.695-29v29h-19.6v-75.4h30.495c4.2 0 7.87.633 11 1.9 3.14 1.2 5.7 2.867 7.7 5 2.07 2.133 3.6 4.6 4.6 7.4 1.07 2.8 1.6 5.8 1.6 9 0 5.733-1.4 10.4-4.2 14-2.73 3.533-6.8 5.933-12.2 7.2l23.7 30.9Z"/><path fill="url(#i)" d="M902.935 145.8c0 3 .566 5.767 1.7 8.3 1.133 2.533 2.666 4.733 4.6 6.6a21.633 21.633 0 0 0 6.7 4.4c2.6 1 5.333 1.5 8.2 1.5 2.866 0 5.566-.5 8.1-1.5 2.6-1.067 4.866-2.533 6.8-4.4 2-1.867 3.566-4.067 4.7-6.6 1.133-2.533 1.7-5.3 1.7-8.3 0-3-.567-5.767-1.7-8.3a20.249 20.249 0 0 0-4.7-6.6c-1.934-1.867-4.2-3.3-6.8-4.3-2.534-1.067-5.234-1.6-8.1-1.6-2.867 0-5.6.533-8.2 1.6a20.237 20.237 0 0 0-6.7 4.3c-1.934 1.867-3.467 4.067-4.6 6.6-1.134 2.533-1.7 5.3-1.7 8.3Zm-20.5 0c0-5.6 1.033-10.8 3.1-15.6 2.066-4.867 4.933-9.1 8.6-12.7 3.666-3.6 8.033-6.4 13.1-8.4 5.133-2.067 10.766-3.1 16.9-3.1 6.066 0 11.666 1.033 16.8 3.1 5.133 2 9.533 4.8 13.2 8.4 3.733 3.6 6.633 7.833 8.7 12.7 2.066 4.8 3.1 10 3.1 15.6s-1.034 10.833-3.1 15.7c-2.067 4.8-4.967 9-8.7 12.6-3.667 3.6-8.067 6.433-13.2 8.5-5.134 2-10.734 3-16.8 3-6.134 0-11.767-1-16.9-3-5.067-2.067-9.434-4.9-13.1-8.5-3.667-3.6-6.534-7.8-8.6-12.6-2.067-4.867-3.1-10.1-3.1-15.7Z"/><path fill="url(#j)" d="M863.7 124.7v58.8h-19.6v-58.8H825v-16.6h57.8v16.6h-19.1Z"/><path fill="url(#k)" fill-rule="evenodd" d="M776.004 154.342c-1.073-2.546-1.609-5.327-1.609-8.342 0-3.015.536-5.796 1.609-8.342 1.072-2.546 2.523-4.757 4.352-6.633a19.065 19.065 0 0 1 6.339-4.321 19.194 19.194 0 0 1 7.758-1.609c2.712 0 5.266.536 7.663 1.609a18.83 18.83 0 0 1 6.434 4.321c.233.231.459.467.679.708l10.603-16.965c-2.795-2.308-5.957-4.192-9.485-5.652-4.856-2.077-10.155-3.116-15.894-3.116-5.803 0-11.133 1.039-15.99 3.116-4.793 2.01-8.924 4.824-12.394 8.442-3.469 3.618-6.181 7.872-8.136 12.764C755.978 135.146 755 140.372 755 146s.978 10.888 2.933 15.779c1.955 4.824 4.667 9.045 8.136 12.663 3.47 3.618 7.601 6.466 12.394 8.543 4.857 2.01 10.187 3.015 15.99 3.015 5.739 0 11.038-1.005 15.894-3.015 3.653-1.562 6.913-3.56 9.781-5.994L809.97 159.41a19.985 19.985 0 0 1-1.42 1.565 20.109 20.109 0 0 1-6.434 4.422c-2.397 1.005-4.951 1.508-7.663 1.508-2.712 0-5.299-.503-7.758-1.508a20.413 20.413 0 0 1-6.339-4.422c-1.829-1.876-3.28-4.087-4.352-6.633Z" clip-rule="evenodd"/><path fill="url(#l)" d="M688.021 145.8c0 3 .566 5.767 1.7 8.3 1.133 2.533 2.666 4.733 4.599 6.6a21.65 21.65 0 0 0 6.701 4.4c2.6 1 5.333 1.5 8.2 1.5 2.866 0 5.566-.5 8.1-1.5 2.6-1.067 4.866-2.533 6.8-4.4 2-1.867 3.566-4.067 4.7-6.6 1.133-2.533 1.7-5.3 1.7-8.3 0-3-.567-5.767-1.7-8.3a20.249 20.249 0 0 0-4.7-6.6c-1.934-1.867-4.2-3.3-6.8-4.3-2.534-1.067-5.234-1.6-8.1-1.6-2.867 0-5.6.533-8.2 1.6a20.251 20.251 0 0 0-6.701 4.3c-1.933 1.867-3.466 4.067-4.599 6.6-1.134 2.533-1.7 5.3-1.7 8.3Zm-20.5 0c0-5.6 1.033-10.8 3.1-15.6 2.066-4.867 4.933-9.1 8.6-12.7 3.666-3.6 8.033-6.4 13.099-8.4 5.134-2.067 10.767-3.1 16.901-3.1 6.066 0 11.666 1.033 16.8 3.1 5.133 2 9.533 4.8 13.2 8.4 3.733 3.6 6.633 7.833 8.7 12.7 2.066 4.8 3.1 10 3.1 15.6s-1.034 10.833-3.1 15.7c-2.067 4.8-4.967 9-8.7 12.6-3.667 3.6-8.067 6.433-13.2 8.5-5.134 2-10.734 3-16.8 3-6.134 0-11.767-1-16.901-3-5.066-2.067-9.433-4.9-13.099-8.5-3.667-3.6-6.534-7.8-8.6-12.6-2.067-4.867-3.1-10.1-3.1-15.7Z"/><path fill="url(#m)" d="M615.907 166.9h4.5c3.4 0 6.433-.533 9.1-1.6 2.667-1.067 4.9-2.533 6.7-4.4 1.867-1.867 3.267-4.067 4.2-6.6 1-2.6 1.5-5.433 1.5-8.5 0-3-.5-5.8-1.5-8.4-1-2.6-2.433-4.833-4.3-6.7-1.8-1.867-4.033-3.333-6.7-4.4-2.667-1.067-5.667-1.6-9-1.6h-4.5v42.2Zm-19.6-58.8h29c5.133 0 9.933 1.033 14.4 3.1 4.533 2.067 8.467 4.833 11.8 8.3 3.4 3.4 6.067 7.4 8 12 1.933 4.533 2.9 9.3 2.9 14.3 0 4.933-.967 9.7-2.9 14.3-1.867 4.533-4.5 8.533-7.9 12-3.333 3.467-7.267 6.233-11.8 8.3-4.467 2.067-9.3 3.1-14.5 3.1h-29v-75.4Z"/><path fill="url(#n)" d="M553.192 124.7h-23.3v12.6h22v16.6h-22v13h23.3v16.6h-42.9v-75.4h42.9v16.6Z"/><path fill="url(#o)" d="M453.591 137.2h28.3v-29.1h19.6v75.4h-19.6v-31.1h-28.3v31.1h-19.6v-75.4h19.6v29.1Z"/><path fill="url(#p)" d="M407.7 124.7v58.8h-19.6v-58.8H369v-16.6h57.8v16.6h-19.1Z"/><path fill="#4C83F6" d="M1411.25 106H2433v40H1411.25z"/></g></g><defs><linearGradient id="e" x1="1252.19" x2="1336.4" y1="147.293" y2="147.293" gradientUnits="userSpaceOnUse"><stop stop-color="#fff"/><stop offset="1" stop-color="#fff"/></linearGradient><linearGradient id="f" x1="1174.39" x2="1242.47" y1="147.214" y2="147.214" gradientUnits="userSpaceOnUse"><stop stop-color="#fff"/><stop offset="1" stop-color="#fff"/></linearGradient><linearGradient id="g" x1="1053.53" x2="1169.11" y1="147.214" y2="147.214" gradientUnits="userSpaceOnUse"><stop stop-color="#fff"/><stop offset="1" stop-color="#fff"/></linearGradient><linearGradient id="h" x1="969.894" x2="1033.13" y1="147.214" y2="147.214" gradientUnits="userSpaceOnUse"><stop stop-color="#fff"/><stop offset="1" stop-color="#fff"/></linearGradient><linearGradient id="i" x1="881.873" x2="966.086" y1="147.293" y2="147.293" gradientUnits="userSpaceOnUse"><stop stop-color="#fff"/><stop offset="1" stop-color="#fff"/></linearGradient><linearGradient id="j" x1="824.612" x2="882.905" y1="147.214" y2="147.214" gradientUnits="userSpaceOnUse"><stop stop-color="#fff"/><stop offset="1" stop-color="#fff"/></linearGradient><linearGradient id="k" x1="754.562" x2="820.246" y1="147.5" y2="147.5" gradientUnits="userSpaceOnUse"><stop stop-color="#fff"/><stop offset="1" stop-color="#fff"/></linearGradient><linearGradient id="l" x1="666.959" x2="751.172" y1="147.293" y2="147.293" gradientUnits="userSpaceOnUse"><stop stop-color="#fff"/><stop offset="1" stop-color="#fff"/></linearGradient><linearGradient id="m" x1="595.863" x2="662.527" y1="147.214" y2="147.214" gradientUnits="userSpaceOnUse"><stop stop-color="#fff"/><stop offset="1" stop-color="#fff"/></linearGradient><linearGradient id="n" x1="510.003" x2="553.269" y1="147.214" y2="147.214" gradientUnits="userSpaceOnUse"><stop stop-color="#fff"/><stop offset="1" stop-color="#fff"/></linearGradient><linearGradient id="o" x1="433.537" x2="501.613" y1="147.214" y2="147.214" gradientUnits="userSpaceOnUse"><stop stop-color="#fff"/><stop offset="1" stop-color="#fff"/></linearGradient><linearGradient id="p" x1="368.612" x2="426.905" y1="147.214" y2="147.214" gradientUnits="userSpaceOnUse"><stop stop-color="#fff"/><stop offset="1" stop-color="#fff"/></linearGradient><clipPath id="a"><path fill="#fff" d="M0 0h2433v629H0z"/></clipPath><clipPath id="b"><path fill="#fff" d="M0 0h2433v629H0z"/></clipPath><clipPath id="c"><path fill="#fff" d="M0 0h294v629H0z"/></clipPath><clipPath id="d"><path fill="#fff" d="M369 244h2063v246H369z"/></clipPath></defs></svg>