<svg width="89" height="28" viewBox="0 0 89 28" fill="none" xmlns="http://www.w3.org/2000/svg">
<path d="M22.1322 12.4112C17.6496 9.73127 10.2557 9.48485 5.97654 10.7924C5.28934 11.0022 4.5627 10.6116 4.35448 9.91985C4.14626 9.22773 4.53378 8.49666 5.22142 8.28635C10.1336 6.78509 18.2994 7.07515 23.4598 10.1591C24.078 10.5284 24.2808 11.332 23.9143 11.9534C23.5476 12.5755 22.7487 12.7806 22.1322 12.4112ZM21.9854 16.3807C21.671 16.8945 21.0038 17.0555 20.4942 16.7402C16.757 14.4276 11.0584 13.7576 6.63707 15.1087C6.06372 15.2831 5.45812 14.9577 5.28403 14.3815C5.11121 13.8043 5.43464 13.1957 6.00696 13.0202C11.0577 11.4773 17.3364 12.2246 21.6287 14.8802C22.1383 15.1961 22.2987 15.8682 21.9854 16.3807ZM20.2838 20.1929C20.034 20.6054 19.5003 20.7347 19.0921 20.4833C15.8265 18.474 11.7162 18.0201 6.87564 19.1333C6.40912 19.241 5.94429 18.9466 5.83785 18.4772C5.73102 18.0076 6.0222 17.5397 6.48976 17.4325C11.7869 16.2133 16.3309 16.7381 19.9963 18.993C20.405 19.2442 20.5337 19.7817 20.2838 20.1929ZM13.9063 0C6.2262 0 0 6.26784 0 13.9997C0 21.7323 6.2262 28 13.9063 28C21.5867 28 27.8125 21.7323 27.8125 13.9997C27.8125 6.26784 21.5867 0 13.9063 0Z" fill="white"/>
<path d="M37.2235 18.0536C34.9824 17.5155 34.5833 17.1379 34.5833 16.3446C34.5833 15.5948 35.2845 15.0905 36.327 15.0905C37.3376 15.0905 38.3395 15.4736 39.3902 16.2622C39.422 16.2861 39.4619 16.2956 39.5011 16.2894C39.5403 16.2834 39.5748 16.2619 39.5979 16.2291L40.6922 14.6762C40.7372 14.6124 40.7249 14.5241 40.6643 14.4752C39.414 13.4652 38.006 12.9741 36.3602 12.9741C33.9404 12.9741 32.2501 14.4359 32.2501 16.5278C32.2501 18.771 33.7082 19.5651 36.2278 20.1782C38.3724 20.6755 38.7343 21.0921 38.7343 21.837C38.7343 22.6623 38.0024 23.1754 36.8246 23.1754C35.5166 23.1754 34.4494 22.7317 33.2558 21.6911C33.2262 21.6655 33.1855 21.6537 33.148 21.6558C33.1087 21.6591 33.0726 21.6775 33.0474 21.7079L31.8205 23.178C31.769 23.239 31.7755 23.3301 31.8349 23.3828C33.2238 24.6311 34.9317 25.2905 36.775 25.2905C39.3825 25.2905 41.0675 23.856 41.0675 21.636C41.0675 19.7598 39.954 18.7221 37.2235 18.0536Z" fill="white"/>
<path d="M48.8597 20.5682C48.8597 22.1525 47.8903 23.2581 46.5023 23.2581C45.1301 23.2581 44.095 22.1023 44.095 20.5682C44.095 19.0344 45.1301 17.8784 46.5023 17.8784C47.868 17.8784 48.8597 19.0094 48.8597 20.5682ZM46.9668 15.8284C45.8366 15.8284 44.9095 16.2766 44.1451 17.1949V16.1613C44.1451 16.0797 44.0794 16.0132 43.9983 16.0132H41.9917C41.9107 16.0132 41.8451 16.0797 41.8451 16.1613V27.6463C41.8451 27.7279 41.9107 27.7944 41.9917 27.7944H43.9983C44.0794 27.7944 44.1451 27.7279 44.1451 27.6463V24.0211C44.9097 24.885 45.8369 25.3069 46.9668 25.3069C49.0669 25.3069 51.1928 23.6794 51.1928 20.5682C51.1928 17.4564 49.0669 15.8284 46.9668 15.8284Z" fill="white"/>
<path d="M56.6422 23.2746C55.2037 23.2746 54.1192 22.111 54.1192 20.5682C54.1192 19.0189 55.1662 17.8947 56.609 17.8947C58.0569 17.8947 59.1487 19.0582 59.1487 20.602C59.1487 22.1511 58.0945 23.2746 56.6422 23.2746ZM56.6422 15.8284C53.9377 15.8284 51.8188 17.9251 51.8188 20.602C51.8188 23.25 53.9231 25.3246 56.609 25.3246C59.3232 25.3246 61.4485 23.235 61.4485 20.5682C61.4485 17.9104 59.3378 15.8284 56.6422 15.8284Z" fill="white"/>
<path d="M67.224 16.0133H65.0158V13.7404C65.0158 13.6587 64.9504 13.5924 64.8693 13.5924H62.8629C62.7817 13.5924 62.7156 13.6587 62.7156 13.7404V16.0133H61.7508C61.6699 16.0133 61.6046 16.0797 61.6046 16.1613V17.8976C61.6046 17.9791 61.6699 18.0456 61.7508 18.0456H62.7156V22.5383C62.7156 24.3539 63.6132 25.2744 65.3834 25.2744C66.1033 25.2744 66.7005 25.1247 67.2633 24.8034C67.309 24.7777 67.3375 24.7281 67.3375 24.6753V23.0219C67.3375 22.9708 67.311 22.9228 67.2677 22.896C67.224 22.8684 67.1696 22.867 67.1248 22.8893C66.7383 23.0851 66.3646 23.1755 65.9469 23.1755C65.3032 23.1755 65.0158 22.8813 65.0158 22.2217V18.0456H67.224C67.3051 18.0456 67.3704 17.9791 67.3704 17.8976V16.1613C67.3704 16.0797 67.3051 16.0133 67.224 16.0133Z" fill="white"/>
<path d="M74.9177 16.0221V15.7429C74.9177 14.9217 75.2305 14.5555 75.932 14.5555C76.3504 14.5555 76.6864 14.6391 77.0627 14.7655C77.1091 14.7802 77.1574 14.7728 77.1951 14.7449C77.2338 14.717 77.2557 14.6722 77.2557 14.6247V12.9223C77.2557 12.8572 77.2142 12.7997 77.152 12.7806C76.7544 12.6616 76.2457 12.5392 75.4841 12.5392C73.6305 12.5392 72.6509 13.59 72.6509 15.5769V16.0045H71.6868C71.6059 16.0045 71.5396 16.0708 71.5396 16.1524V17.8975C71.5396 17.9791 71.6059 18.0455 71.6868 18.0455H72.6509V24.9753C72.6509 25.0569 72.7163 25.1233 72.7972 25.1233H74.8038C74.8849 25.1233 74.9509 25.0569 74.9509 24.9753V18.0455H76.8245L79.6946 24.9735C79.3688 25.7014 79.0484 25.8462 78.611 25.8462C78.2574 25.8462 77.8851 25.7399 77.5045 25.5302C77.4687 25.5104 77.4264 25.5071 77.3876 25.5192C77.3493 25.5329 77.3171 25.5615 77.3008 25.5991L76.6207 27.1013C76.5883 27.1722 76.6159 27.2556 76.6838 27.2924C77.3938 27.6795 78.0349 27.8448 78.8269 27.8448C80.3087 27.8448 81.1277 27.1498 81.8498 25.2804L85.3312 16.2237C85.3486 16.1781 85.3435 16.1268 85.3157 16.0862C85.2881 16.0463 85.2436 16.0221 85.195 16.0221H83.1059C83.0434 16.0221 82.9873 16.062 82.9669 16.1212L80.8268 22.2752L78.4828 16.1171C78.4614 16.0599 78.4067 16.0221 78.3458 16.0221H74.9177Z" fill="white"/>
<path d="M70.4574 16.0132H68.4506C68.3696 16.0132 68.3037 16.0796 68.3037 16.1613V24.9753C68.3037 25.0569 68.3696 25.1232 68.4506 25.1232H70.4574C70.5383 25.1232 70.6043 25.0569 70.6043 24.9753V16.1613C70.6043 16.0796 70.5383 16.0132 70.4574 16.0132Z" fill="white"/>
<path d="M69.4643 11.9999C68.6694 11.9999 68.0242 12.648 68.0242 13.4482C68.0242 14.249 68.6694 14.8976 69.4643 14.8976C70.2589 14.8976 70.9034 14.249 70.9034 13.4482C70.9034 12.648 70.2589 11.9999 69.4643 11.9999Z" fill="white"/>
<path d="M87.1264 16.89H86.7588V17.362H87.1264C87.3099 17.362 87.4195 17.2716 87.4195 17.1259C87.4195 16.9723 87.3099 16.89 87.1264 16.89ZM87.3648 17.5633L87.7642 18.1264H87.4274L87.0678 17.61H86.7588V18.1264H86.4768V16.634H87.1379C87.4821 16.634 87.7087 16.8114 87.7087 17.11C87.7087 17.3546 87.5683 17.5042 87.3648 17.5633ZM87.0517 16.1374C86.3283 16.1374 85.7809 16.7162 85.7809 17.4252C85.7809 18.1338 86.3245 18.7049 87.0443 18.7049C87.7675 18.7049 88.3154 18.1264 88.3154 17.4171C88.3154 16.7086 87.7715 16.1374 87.0517 16.1374ZM87.0443 18.8471C86.2501 18.8471 85.6321 18.2049 85.6321 17.4252C85.6321 16.6454 86.2581 15.9959 87.0517 15.9959C87.8457 15.9959 88.4639 16.638 88.4639 17.4171C88.4639 18.197 87.8383 18.8471 87.0443 18.8471Z" fill="white"/>
<path d="M31.5931 1.50769H32.6087V7.28015H35.6729V8.1725H31.5931V1.50769Z" fill="white"/>
<path d="M36.8665 1.63675C36.8665 1.28961 37.1427 1.00922 37.4823 1.00922C37.8187 1.00922 38.0982 1.29072 38.0982 1.63675C38.0982 1.97834 37.8176 2.26095 37.4823 2.26095C37.1427 2.26095 36.8665 1.97834 36.8665 1.63675ZM36.9888 3.15553H37.9672V8.17139H36.9888V3.15553Z" fill="white"/>
<path d="M39.2896 6.85956V6.854H40.2734L40.2778 6.85956C40.4001 7.23787 40.7583 7.49155 41.3436 7.49155C41.9508 7.49155 42.3723 7.21005 42.3723 6.79837V6.78947C42.3723 6.4757 42.1419 6.26207 41.5697 6.12855L40.7856 5.94385C39.8563 5.72688 39.4261 5.29739 39.4261 4.56304V4.55859C39.4261 3.68627 40.2232 3.05762 41.3382 3.05762C42.4618 3.05762 43.1826 3.63063 43.2688 4.44732V4.45177H42.3308V4.44287C42.2358 4.09239 41.8874 3.82869 41.3338 3.82869C40.7943 3.82869 40.4045 4.10018 40.4045 4.50184V4.51186C40.4045 4.82563 40.6316 5.01923 41.1842 5.15275L41.9639 5.333C42.9106 5.55887 43.3638 5.97055 43.3638 6.696V6.7049C43.3638 7.63397 42.4935 8.26596 41.325 8.26596C40.1369 8.26819 39.3856 7.69962 39.2896 6.85956Z" fill="white"/>
<path d="M44.9626 6.85065V3.94662H44.1927V3.15663H44.9626V1.89154H45.964V3.15663H47.0199V3.94662H45.964V6.61143C45.964 7.15107 46.1638 7.3736 46.6476 7.3736C46.7972 7.3736 46.8834 7.36915 47.0199 7.35468V8.15468C46.8605 8.18139 46.6792 8.20475 46.4892 8.20475C45.4071 8.20253 44.9626 7.81532 44.9626 6.85065Z" fill="white"/>
<path d="M48.0006 5.67791V5.67235C48.0006 4.10795 48.8884 3.05872 50.2622 3.05872C51.6348 3.05872 52.4778 4.07012 52.4778 5.57554V5.92603H48.9889C49.0074 6.88625 49.524 7.44481 50.3353 7.44481C50.9654 7.44481 51.3411 7.12659 51.459 6.86734L51.4776 6.83062L52.4243 6.82617L52.4156 6.86734C52.2529 7.52826 51.5726 8.26706 50.3124 8.26706C48.8709 8.26817 48.0006 7.26678 48.0006 5.67791ZM49.002 5.21059H51.5038C51.4273 4.3149 50.9337 3.88097 50.2665 3.88097C49.596 3.88097 49.0882 4.34828 49.002 5.21059Z" fill="white"/>
<path d="M53.7773 3.15556H54.7612V3.91773H54.8333C55.0736 3.38255 55.5442 3.05988 56.2606 3.05988C57.3613 3.05988 57.9696 3.72969 57.9696 4.9258V8.17253H56.9911V5.16168C56.9911 4.33053 56.6504 3.91885 55.9297 3.91885C55.209 3.91885 54.7612 4.42288 54.7612 5.23067V8.17364H53.7773V3.15556Z" fill="white"/>
<path d="M61.8909 5.6679V5.65899C61.8909 4.04675 62.7787 3.05872 64.2201 3.05872C65.6572 3.05872 66.545 4.0423 66.545 5.65899V5.6679C66.545 7.28458 65.6605 8.26817 64.2201 8.26817C62.7743 8.26817 61.8909 7.28458 61.8909 5.6679ZM65.5436 5.6679V5.65899C65.5436 4.54522 65.0631 3.89432 64.2201 3.89432C63.3727 3.89432 62.8966 4.54522 62.8966 5.65899V5.6679C62.8966 6.78055 63.3727 7.43257 64.2201 7.43257C65.0631 7.43257 65.5436 6.7761 65.5436 5.6679Z" fill="white"/>
<path d="M67.8434 3.15556H68.8262V3.91773H68.8983C69.1385 3.38255 69.6103 3.05988 70.3266 3.05988C71.4284 3.05988 72.0345 3.72969 72.0345 4.9258V8.17253H71.0561V5.16168C71.0561 4.33053 70.7165 3.91885 69.9957 3.91885C69.275 3.91885 68.8262 4.42288 68.8262 5.23067V8.17364H67.8434V3.15556Z" fill="white"/>
</svg>
