<svg xmlns="http://www.w3.org/2000/svg" width="138" height="26" fill="none">
  <g fill="#fff" clip-path="url(#a)">
    <path d="M99.949 10.842c-.528 2.716-.929 6.033-1.14 7.403h-.149c-.167-1.411-.571-4.707-1.118-7.381L96.19 4.209h-4.119v17.952h2.556V7.36l.252 1.382 2.6 13.415h2.555l2.555-13.415.275-1.389v14.807h2.556V4.207h-4.161l-1.31 6.632v.003ZM112.327 19.464c-.233.492-.739.835-1.247.835-.591 0-.824-.47-.824-1.626V9.046h-2.916v9.8c0 2.418.781 3.529 2.514 3.529 1.182 0 2.133-.535 2.789-1.818h.063l.253 1.606h2.281V9.05h-2.915v10.42l.002-.005ZM120.881 14.22c-.951-.706-1.542-1.177-1.542-2.204 0-.726.338-1.133 1.14-1.133.803 0 1.099.58 1.119 2.547l2.451-.106c.189-3.187-.846-4.514-3.528-4.514-2.492 0-3.718 1.133-3.718 3.465 0 2.118 1.014 3.08 2.663 4.344 1.415 1.114 2.239 1.734 2.239 2.633 0 .685-.423 1.155-1.162 1.155-.866 0-1.374-.835-1.248-2.29l-2.47.042c-.379 2.716.698 4.3 3.569 4.3 2.514 0 3.823-1.178 3.823-3.53 0-2.14-1.056-2.994-3.339-4.706l.003-.003ZM128.612 9.044h-2.788v13.114h2.788V9.044ZM127.239 3.864c-1.077 0-1.586.407-1.586 1.818s.506 1.817 1.586 1.817c1.079 0 1.585-.364 1.585-1.817 0-1.347-.486-1.818-1.585-1.818ZM137.99 17.43l-2.555-.128c0 2.31-.253 3.058-1.119 3.058-.865 0-1.013-.835-1.013-3.551v-2.547c0-2.632.167-3.465 1.035-3.465.803 0 1.014.79 1.014 3.231l2.536-.172c.168-2.032-.085-3.423-.865-4.214-.572-.579-1.437-.854-2.641-.854-2.83 0-3.992 1.541-3.992 5.861v1.84c0 4.45.992 5.883 3.888 5.883 1.225 0 2.069-.256 2.64-.812.824-.771 1.14-2.096 1.077-4.13h-.005ZM38.481 21.774c-.583-.399-.999-1.02-1.247-1.862-.245-.842-.37-1.96-.37-3.36V14.65c0-1.411.142-2.546.424-3.403.282-.858.722-1.48 1.32-1.872.598-.392 1.383-.589 2.356-.589.972 0 1.726.2 2.302.599.577.399 1 1.024 1.267 1.871.267.85.401 1.98.401 3.392v1.903c0 1.4-.131 2.522-.391 3.372-.26.85-.683 1.47-1.267 1.862-.584.392-1.376.588-2.378.588-1.002 0-1.836-.199-2.42-.598h.003Zm3.275-2.054c.163-.428.244-1.128.244-2.096v-4.088c0-.94-.08-1.63-.244-2.066-.163-.436-.447-.653-.855-.653-.409 0-.674.217-.834.653-.163.435-.243 1.123-.243 2.066v4.088c0 .97.077 1.67.233 2.096.155.429.435.643.846.643.41 0 .693-.214.856-.643h-.003ZM83.352 16.585v.662c0 .843.025 1.473.073 1.894.049.421.151.727.307.921.155.192.394.288.717.288.435 0 .737-.172.897-.514.163-.343.25-.914.265-1.712l2.514.15c.015.114.022.271.022.47 0 1.212-.328 2.119-.982 2.72-.654.598-1.58.899-2.78.899-1.436 0-2.443-.456-3.022-1.37-.578-.913-.865-2.325-.865-4.236v-2.29c0-1.968.299-3.406.897-4.313.598-.906 1.624-1.36 3.073-1.36 1 0 1.768.186 2.303.558.535.371.912.948 1.13 1.733.22.786.329 1.87.329 3.254v2.246h-4.88.002Zm.37-5.522c-.148.185-.246.488-.297.909-.048.421-.073 1.059-.073 1.916v.94h2.135v-.94c0-.842-.03-1.48-.085-1.916-.056-.436-.158-.741-.306-.921-.149-.178-.377-.269-.686-.269-.309 0-.54.094-.686.279l-.002.002ZM31.382 16.338 28.065 4.204h2.894l1.162 5.5c.296 1.354.513 2.512.654 3.467h.085c.097-.684.316-1.832.654-3.445l1.204-5.522h2.893L34.25 16.34v5.822h-2.874v-5.823h.005ZM54.349 9.041v13.117h-2.281l-.253-1.606h-.063c-.62 1.212-1.549 1.82-2.789 1.82-.858 0-1.493-.285-1.901-.857-.409-.57-.613-1.463-.613-2.674V9.039h2.915v9.63c0 .586.063 1.002.19 1.25.126.25.338.375.634.375.253 0 .496-.079.73-.237.233-.157.404-.357.518-.598V9.036h2.915l-.002.005ZM69.304 9.041v13.117h-2.28l-.254-1.606h-.063c-.62 1.212-1.548 1.82-2.788 1.82-.859 0-1.493-.285-1.902-.857-.408-.57-.613-1.463-.613-2.674V9.039h2.916v9.63c0 .586.063 1.002.19 1.25.126.25.337.375.634.375.253 0 .496-.079.73-.237.233-.157.403-.357.517-.598V9.036h2.915l-.002.005Z"/>
    <path d="M62.27 6.58h-2.893v15.58h-2.852V6.58H53.63V4.208h8.641V6.58h-.002ZM78.952 11.14c-.178-.828-.462-1.426-.856-1.798-.394-.372-.936-.557-1.627-.557-.535 0-1.036.153-1.5.46-.464.308-.824.71-1.077 1.21h-.022V3.542h-2.81v18.616h2.409l.297-1.241h.063c.226.443.564.79 1.014 1.05.45.255.95.383 1.5.383.984 0 1.712-.46 2.176-1.379.464-.921.698-2.357.698-4.312v-2.076c0-1.47-.088-2.618-.265-3.446v.002Zm-2.672 5.349c0 .955-.04 1.704-.117 2.246-.078.542-.207.928-.392 1.155a.896.896 0 0 1-.739.342c-.24 0-.462-.056-.666-.172a1.273 1.273 0 0 1-.496-.515v-7.447c.097-.357.267-.648.508-.877.239-.23.501-.342.78-.342.297 0 .526.118.686.352.163.236.275.63.338 1.187.064.556.095 1.347.095 2.374v1.69l.003.007ZM12.835 0C5.745 0 0 5.82 0 13.001c0 7.182 5.745 13.002 12.835 13.002 7.09 0 12.835-5.82 12.835-13.002C25.67 5.82 19.924 0 12.835 0Zm0 20.895c-4.303 0-7.795-3.535-7.795-7.896 0-4.362 3.49-7.896 7.795-7.896 4.306 0 7.795 3.534 7.795 7.896 0 4.361-3.489 7.896-7.795 7.896Z"/>
    <path d="M12.835 6.155c-3.727 0-6.759 3.07-6.759 6.846 0 3.776 3.032 6.847 6.76 6.847 3.726 0 6.758-3.071 6.758-6.847 0-3.775-3.032-6.846-6.759-6.846Zm-2.48 10.686V9.159l6.563 3.842-6.563 3.842v-.002Z"/>
  </g>
  <defs>
    <clipPath id="a">
      <path fill="#fff" d="M0 0h138v26H0z"/>
    </clipPath>
  </defs>
</svg>
