<svg width="120" height="28" viewBox="0 0 120 28" fill="none" xmlns="http://www.w3.org/2000/svg">
<path d="M12.2997 8.73095C13.8808 8.73095 15.1623 10.0581 15.1623 11.6937C15.1623 13.331 13.8808 14.6565 12.2997 14.6565C10.7187 14.6565 9.4371 13.3294 9.4371 11.6937C9.4371 10.0581 10.7187 8.73095 12.2997 8.73095ZM20.5394 12.7343C20.5394 15.6593 19.1104 18.2443 16.9365 19.7807C16.8255 19.8595 16.675 19.7697 16.6841 19.6312C16.7145 19.1117 16.7236 18.6504 16.6978 18.1766C16.6887 18.0207 16.7479 17.8696 16.8589 17.7625C18.1557 16.5031 18.966 14.7147 18.966 12.7327C18.966 8.83642 15.8312 5.68474 12.0367 5.83744C8.54472 5.97755 5.72771 8.93088 5.63649 12.5486C5.58481 14.603 6.40421 16.4653 7.74051 17.7641C7.84997 17.8712 7.90926 18.0223 7.90014 18.1781C7.87429 18.652 7.88341 19.1117 7.91382 19.6328C7.92142 19.7713 7.77243 19.8595 7.66146 19.7823C5.46014 18.2254 4.022 15.5948 4.05848 12.6241C4.11473 8.10754 7.61281 4.38597 11.9713 4.21122C16.6643 4.02231 20.5394 7.91863 20.5394 12.7343ZM12.2648 5.47382e-05C19.0633 -0.0204108 24.6 5.70048 24.6 12.7327C24.6 18.2773 21.1582 23.0048 16.3709 24.7476C16.2539 24.7901 16.1338 24.6893 16.1535 24.5618C16.2174 24.1257 16.2767 23.6881 16.3314 23.2583C16.3512 23.1056 16.4439 22.9749 16.5792 22.9135C20.3707 21.1992 23.0265 17.2808 23.0265 12.7327C23.0265 6.57892 18.1663 1.57905 12.2115 1.62942C6.38597 1.67823 1.63065 6.59467 1.57441 12.6241C1.53184 17.2194 4.19986 21.185 8.02023 22.9135C8.15553 22.9749 8.24979 23.1056 8.26956 23.2583C8.32428 23.6897 8.38357 24.1273 8.44742 24.5634C8.46566 24.6909 8.34709 24.7916 8.23003 24.7491C3.39566 22.9891 -0.0659378 18.1876 0.000952896 12.5722C0.083046 5.64381 5.5696 0.0205202 12.2648 5.47382e-05ZM12.2997 15.8561C13.3882 15.8561 14.3095 16.2229 14.8355 16.7975C15.1091 17.0966 15.2535 17.4036 15.2992 17.8397C15.3873 18.685 15.3372 19.4139 15.2414 20.5789C15.1502 21.6888 14.9769 23.1686 14.7503 24.6751C14.5892 25.7472 14.4585 26.3266 14.3399 26.7406C14.1468 27.4128 13.4262 28 12.2982 28C11.1702 28 10.4496 27.4128 10.2565 26.7406C10.1379 26.3266 10.0072 25.7472 9.84604 24.6751C9.61953 23.1686 9.44622 21.6888 9.35501 20.5789C9.25923 19.4139 9.20906 18.685 9.29724 17.8397C9.34284 17.4036 9.48727 17.0966 9.76091 16.7975C10.29 16.2229 11.2112 15.8561 12.2997 15.8561Z" fill="white"/>
<path d="M50.4044 12.6241C53.0357 12.6241 54.8678 14.4745 54.8678 17.1682C54.8678 19.872 52.9976 21.7324 50.3389 21.7324H47.4262V26.4589H45.3215V12.6241H50.4044ZM47.4262 19.9298H49.8417C51.6737 19.9298 52.7173 18.9229 52.7173 17.1782C52.7173 15.4336 51.6748 14.4367 49.8515 14.4367H47.4273L47.4262 19.9298Z" fill="white"/>
<path d="M55.1786 21.4153C55.1786 18.1753 57.0488 16.1903 59.8678 16.1903C62.6867 16.1903 64.5569 18.1753 64.5569 21.4153C64.5569 24.6654 62.6965 26.6504 59.8678 26.6504C57.039 26.6504 55.1786 24.6654 55.1786 21.4153ZM62.4882 21.4153C62.4882 19.1811 61.4544 17.8971 59.8667 17.8971C58.2789 17.8971 57.2451 19.1822 57.2451 21.4153C57.2451 23.6585 58.2789 24.9436 59.8667 24.9436C61.4642 24.9436 62.4882 23.6596 62.4882 21.4153Z" fill="white"/>
<path d="M65.6844 21.4153C65.6844 18.232 67.3377 16.2092 69.8185 16.2092C71.2373 16.2092 72.3649 16.938 72.9188 18.0495H72.957V12.6231H74.9962V26.4579H73.0235V24.7422H72.9854C72.403 25.8926 71.2755 26.6303 69.8382 26.6303C67.3387 26.6315 65.6844 24.5986 65.6844 21.4153ZM67.7619 21.4153C67.7619 23.5438 68.7673 24.8768 70.3747 24.8768C71.9341 24.8768 72.9777 23.5249 72.9777 21.4153C72.9777 19.3258 71.9352 17.9538 70.3747 17.9538C68.7673 17.955 67.7619 19.2968 67.7619 21.4153Z" fill="white"/>
<path d="M83.3932 19.8432C83.1871 18.7694 82.3976 17.916 81.0726 17.916C79.5034 17.916 78.4696 19.249 78.4696 21.4153C78.4696 23.6295 79.5132 24.9146 81.0911 24.9146C82.3409 24.9146 83.1587 24.2148 83.3932 23.0454H85.3474C85.1315 25.1928 83.4488 26.6504 81.0715 26.6504C78.2428 26.6504 76.402 24.6754 76.402 21.4153C76.402 18.2131 78.2438 16.1903 81.053 16.1903C83.5993 16.1903 85.15 17.8582 85.3288 19.8432H83.3932Z" fill="white"/>
<path d="M86.392 23.5917C86.392 21.827 87.7169 20.7444 90.0659 20.6098L92.7725 20.4473V19.6707C92.7725 18.5491 92.0299 17.8782 90.79 17.8782C89.6155 17.8782 88.8827 18.4535 88.7038 19.3547H86.7867C86.8991 17.5333 88.4214 16.1903 90.8652 16.1903C93.261 16.1903 94.7932 17.4843 94.7932 19.5071V26.4579H92.8467V24.7989H92.7998C92.2262 25.9205 90.9764 26.6304 89.6798 26.6304C87.7453 26.6315 86.392 25.4042 86.392 23.5917ZM92.7725 22.6815V21.886L90.3385 22.0384C89.1259 22.1252 88.4399 22.6715 88.4399 23.5338C88.4399 24.4162 89.1542 24.9914 90.2436 24.9914C91.6635 24.9914 92.7725 23.9945 92.7725 22.6815Z" fill="white"/>
<path d="M100.279 16.1903C102.581 16.1903 104.075 17.4943 104.141 19.3547H102.234C102.121 18.3767 101.416 17.7636 100.28 17.7636C99.1804 17.7636 98.4476 18.3099 98.4476 19.1155C98.4476 19.7486 98.899 20.1792 99.9699 20.4284L101.576 20.8023C103.597 21.2818 104.367 22.0874 104.367 23.5439C104.367 25.3842 102.685 26.6504 100.355 26.6504C97.8838 26.6504 96.3985 25.4131 96.2109 23.496H98.2218C98.4094 24.5508 99.1149 25.0682 100.355 25.0682C101.576 25.0682 102.328 24.5508 102.328 23.7263C102.328 23.0743 101.961 22.6904 100.88 22.4412L99.2742 22.0573C97.3952 21.6167 96.4639 20.6955 96.4639 19.229C96.4639 17.4276 98.0048 16.1903 100.279 16.1903Z" fill="white"/>
<path d="M108.615 13.985V16.3728H110.494V18.0129H108.615V23.5739C108.615 24.4462 108.992 24.839 109.818 24.839C110.024 24.839 110.354 24.8201 110.486 24.7912V26.4301C110.26 26.488 109.81 26.5258 109.358 26.5258C107.357 26.5258 106.576 25.7492 106.576 23.8031V18.0129H105.139V16.3728H106.576V13.985H108.615Z" fill="white"/>
<path d="M115.737 16.1903C118.04 16.1903 119.534 17.4943 119.6 19.3547H117.693C117.58 18.3767 116.875 17.7636 115.739 17.7636C114.639 17.7636 113.907 18.3099 113.907 19.1155C113.907 19.7486 114.358 20.1792 115.429 20.4284L117.035 20.8023C119.056 21.2818 119.826 22.0874 119.826 23.5439C119.826 25.3842 118.144 26.6504 115.814 26.6504C113.343 26.6504 111.857 25.4131 111.67 23.496H113.681C113.868 24.5508 114.574 25.0682 115.814 25.0682C117.035 25.0682 117.787 24.5508 117.787 23.7263C117.787 23.0743 117.42 22.6904 116.339 22.4412L114.733 22.0573C112.854 21.6167 111.923 20.6955 111.923 19.229C111.923 17.4276 113.464 16.1903 115.737 16.1903Z" fill="white"/>
<path d="M39.6193 15.2034C38.41 15.1122 37.3827 15.8932 36.8102 15.8932C36.229 15.8932 35.3337 15.2234 34.3838 15.2423C33.1363 15.2613 31.9869 15.9823 31.3446 17.1216C30.0491 19.4159 31.0142 22.8151 32.2759 24.6766C32.8931 25.5856 33.6292 26.6115 34.5965 26.5736C35.5267 26.5358 35.8789 25.9594 37.0043 25.9594C38.1286 25.9594 38.446 26.5736 39.4296 26.5547C40.4318 26.5358 41.0653 25.6268 41.6782 24.7122C42.387 23.6562 42.6782 22.6337 42.6956 22.5803C42.6738 22.5714 40.7436 21.8159 40.724 19.5472C40.7066 17.6501 42.242 16.7378 42.3118 16.6944C41.4394 15.3836 40.0937 15.2401 39.6193 15.2034Z" fill="white"/>
<path d="M38.8734 13.975C39.3871 13.3419 39.7327 12.4596 39.6379 11.5817C38.8985 11.6117 38.0043 12.0846 37.4732 12.7177C36.9978 13.2785 36.5812 14.1764 36.6946 15.0365C37.519 15.101 38.3598 14.6092 38.8734 13.975Z" fill="white"/>
<path d="M31.5497 1.50769H32.5639V7.28015H35.6238V8.1725H31.5497V1.50769Z" fill="white"/>
<path d="M36.8158 1.63675C36.8158 1.28961 37.0917 1.00922 37.4308 1.00922C37.7667 1.00922 38.0459 1.29072 38.0459 1.63675C38.0459 1.97834 37.7656 2.26095 37.4308 2.26095C37.0917 2.26095 36.8158 1.97834 36.8158 1.63675ZM36.9379 3.15553H37.915V8.17139H36.9379V3.15553Z" fill="white"/>
<path d="M39.2356 6.85956V6.854H40.2181L40.2225 6.85956C40.3446 7.23787 40.7023 7.49155 41.2868 7.49155C41.8932 7.49155 42.3141 7.21005 42.3141 6.79837V6.78947C42.3141 6.4757 42.084 6.26207 41.5126 6.12855L40.7296 5.94385C39.8016 5.72688 39.3719 5.29739 39.3719 4.56304V4.55859C39.3719 3.68627 40.168 3.05762 41.2814 3.05762C42.4035 3.05762 43.1232 3.63063 43.2094 4.44732V4.45177H42.2726V4.44287C42.1778 4.09239 41.8299 3.82869 41.277 3.82869C40.7383 3.82869 40.349 4.10018 40.349 4.50184V4.51186C40.349 4.82563 40.5758 5.01923 41.1276 5.15275L41.9062 5.333C42.8517 5.55887 43.3043 5.97055 43.3043 6.696V6.7049C43.3043 7.63397 42.4351 8.26596 41.2683 8.26596C40.0818 8.26819 39.3316 7.69962 39.2356 6.85956Z" fill="white"/>
<path d="M44.9008 6.85065V3.94662H44.132V3.15663H44.9008V1.89154H45.9008V3.15663H46.9553V3.94662H45.9008V6.61143C45.9008 7.15107 46.1003 7.3736 46.5834 7.3736C46.7328 7.3736 46.819 7.36915 46.9553 7.35468V8.15468C46.7961 8.18139 46.615 8.20475 46.4253 8.20475C45.3446 8.20253 44.9008 7.81532 44.9008 6.85065Z" fill="white"/>
<path d="M47.9344 5.67791V5.67235C47.9344 4.10795 48.821 3.05872 50.1929 3.05872C51.5636 3.05872 52.4055 4.07012 52.4055 5.57554V5.92603H48.9214C48.9399 6.88625 49.4557 7.44481 50.2659 7.44481C50.8952 7.44481 51.2703 7.12659 51.3881 6.86734L51.4066 6.83062L52.3521 6.82617L52.3433 6.86734C52.1809 7.52826 51.5015 8.26706 50.243 8.26706C48.8036 8.26817 47.9344 7.26678 47.9344 5.67791ZM48.9344 5.21059H51.4328C51.3564 4.3149 50.8635 3.88097 50.1972 3.88097C49.5277 3.88097 49.0206 4.34828 48.9344 5.21059Z" fill="white"/>
<path d="M53.7032 3.15556H54.6858V3.91773H54.7578C54.9977 3.38255 55.4677 3.05988 56.183 3.05988C57.2823 3.05988 57.8897 3.72969 57.8897 4.9258V8.17253H56.9126V5.16168C56.9126 4.33053 56.5724 3.91885 55.8526 3.91885C55.1329 3.91885 54.6858 4.42288 54.6858 5.23067V8.17364H53.7032V3.15556Z" fill="white"/>
<path d="M61.8057 5.6679V5.65899C61.8057 4.04675 62.6922 3.05872 64.1317 3.05872C65.5668 3.05872 66.4534 4.0423 66.4534 5.65899V5.6679C66.4534 7.28458 65.5701 8.26817 64.1317 8.26817C62.6879 8.26817 61.8057 7.28458 61.8057 5.6679ZM65.4534 5.6679V5.65899C65.4534 4.54522 64.9736 3.89432 64.1317 3.89432C63.2855 3.89432 62.81 4.54522 62.81 5.65899V5.6679C62.81 6.78055 63.2855 7.43257 64.1317 7.43257C64.9736 7.43257 65.4534 6.7761 65.4534 5.6679Z" fill="white"/>
<path d="M67.75 3.15556H68.7315V3.91773H68.8034C69.0433 3.38255 69.5144 3.05988 70.2298 3.05988C71.3301 3.05988 71.9354 3.72969 71.9354 4.9258V8.17253H70.9583V5.16168C70.9583 4.33053 70.6191 3.91885 69.8994 3.91885C69.1796 3.91885 68.7315 4.42288 68.7315 5.23067V8.17364H67.75V3.15556Z" fill="white"/>
</svg>
