<svg xmlns="http://www.w3.org/2000/svg" width="160" height="28" fill="none">
  <g fill="#fff" clip-path="url(#a)">
    <path d="M12.3 8.73c1.58 0 2.862 1.328 2.862 2.964 0 1.637-1.281 2.962-2.862 2.962-1.581 0-2.863-1.327-2.863-2.962 0-1.636 1.282-2.963 2.863-2.963Zm8.24 4.004c0 2.925-1.43 5.51-3.604 7.047-.11.079-.261-.011-.252-.15.03-.52.04-.98.014-1.454a.532.532 0 0 1 .161-.415 6.993 6.993 0 0 0 2.107-5.03c0-3.896-3.135-7.047-6.93-6.895-3.491.14-6.308 3.094-6.4 6.712a7.006 7.006 0 0 0 2.105 5.215c.109.107.168.258.16.414-.027.474-.018.934.013 1.455.007.138-.142.227-.253.15-2.2-1.558-3.639-4.188-3.602-7.159.056-4.516 3.554-8.238 7.912-8.413 4.693-.189 8.569 3.708 8.569 8.523ZM12.264 0C19.063-.02 24.6 5.7 24.6 12.733c0 5.544-3.442 10.272-8.229 12.015-.117.042-.237-.059-.217-.186.063-.436.123-.874.177-1.304a.436.436 0 0 1 .248-.345c3.792-1.714 6.448-5.632 6.448-10.18 0-6.154-4.86-11.154-10.815-11.104C6.386 1.68 1.63 6.595 1.574 12.624 1.532 17.22 4.2 21.185 8.02 22.914c.136.06.23.192.25.344.054.432.114.87.177 1.305.019.128-.1.229-.217.186C3.396 22.99-.066 18.188.001 12.572.083 5.644 5.57.021 12.265 0Zm.035 15.856c1.088 0 2.01.367 2.535.941.274.3.419.607.464 1.043.088.845.038 1.574-.058 2.739a64.763 64.763 0 0 1-.49 4.096c-.162 1.072-.292 1.652-.411 2.066-.193.672-.914 1.259-2.042 1.259-1.128 0-1.848-.587-2.041-1.26-.119-.413-.25-.993-.41-2.065a64.759 64.759 0 0 1-.492-4.096c-.096-1.165-.146-1.894-.058-2.74.046-.435.19-.742.464-1.041.529-.575 1.45-.942 2.539-.942ZM31.241 24.5l4.87-13.387h2.246L43.218 24.5h-2.18l-1.224-3.618h-5.159L33.421 24.5h-2.18Zm5.975-11.17-2.004 5.882h4.036l-1.995-5.882h-.037Zm7.245 14.417V14.74h2.004v1.68h.047c.584-1.16 1.66-1.865 3.052-1.865 2.486 0 4.082 1.948 4.082 5.065v.01c0 3.107-1.605 5.065-4.054 5.065-1.383 0-2.505-.705-3.08-1.837h-.047v4.89h-2.004Zm4.583-4.778c1.578 0 2.561-1.28 2.561-3.34v-.009c0-2.078-.993-3.349-2.56-3.349-1.522 0-2.589 1.317-2.589 3.35v.008c0 2.023 1.076 3.34 2.588 3.34Zm6.16 4.778V14.74h2.005v1.68h.046c.584-1.16 1.66-1.865 3.052-1.865 2.486 0 4.082 1.948 4.082 5.065v.01c0 3.107-1.605 5.065-4.054 5.065-1.382 0-2.505-.705-3.08-1.837h-.047v4.89h-2.003Zm4.584-4.778c1.577 0 2.56-1.28 2.56-3.34v-.009c0-2.078-.992-3.349-2.56-3.349-1.522 0-2.589 1.317-2.589 3.35v.008c0 2.023 1.076 3.34 2.589 3.34Zm6.234 1.531V11.113h2.004V24.5h-2.004Zm8.229.195c-2.867 0-4.602-1.958-4.602-5.038v-.01c0-3.051 1.763-5.092 4.5-5.092s4.416 1.966 4.416 4.898v.677h-6.912c.037 1.847 1.049 2.923 2.644 2.923 1.188 0 1.976-.613 2.227-1.346l.028-.074h1.902l-.019.102c-.315 1.55-1.818 2.96-4.184 2.96Zm-.093-8.498c-1.299 0-2.3.881-2.477 2.514h4.899c-.167-1.688-1.114-2.514-2.422-2.514ZM84.224 24.5V11.113h4.982c2.626 0 4.444 1.763 4.444 4.388v.019c0 2.616-1.819 4.406-4.444 4.406h-2.904V24.5h-2.078Zm4.462-11.634h-2.384v5.316h2.384c1.81 0 2.849-.974 2.849-2.653v-.019c0-1.67-1.04-2.644-2.849-2.644Zm10.308 11.829c-2.802 0-4.63-1.94-4.63-5.075v-.018c0-3.118 1.846-5.047 4.62-5.047 2.784 0 4.639 1.92 4.639 5.047v.018c0 3.145-1.837 5.075-4.63 5.075Zm.009-1.68c1.568 0 2.57-1.242 2.57-3.395v-.018c0-2.134-1.021-3.368-2.589-3.368-1.54 0-2.57 1.234-2.57 3.368v.018c0 2.162 1.021 3.396 2.589 3.396Zm9.815 1.68c-2.486 0-4.082-1.967-4.082-5.075v-.01c0-3.107 1.615-5.055 4.064-5.055 1.382 0 2.495.696 3.08 1.846h.037v-5.288h2.013V24.5h-2.013v-1.651h-.037c-.585 1.14-1.661 1.846-3.062 1.846Zm.529-1.726c1.512 0 2.579-1.317 2.579-3.349v-.01c0-2.022-1.076-3.339-2.579-3.339-1.577 0-2.56 1.28-2.56 3.34v.01c0 2.077.974 3.348 2.56 3.348Zm10.836 1.726c-2.848 0-4.629-1.958-4.629-5.084v-.01c0-3.089 1.818-5.046 4.601-5.046 2.514 0 4.036 1.614 4.203 3.45l.009.066h-1.911l-.018-.074c-.214-.956-.956-1.763-2.264-1.763-1.559 0-2.57 1.299-2.57 3.386v.01c0 2.133 1.03 3.386 2.579 3.386 1.234 0 2.023-.715 2.264-1.772l.009-.075h1.93l-.01.065c-.213 1.958-1.846 3.46-4.193 3.46Zm8.489-.019c-1.948 0-3.256-1.196-3.256-2.95v-.018c0-1.698 1.317-2.737 3.627-2.877l2.653-.157v-.733c0-1.076-.696-1.726-1.939-1.726-1.159 0-1.874.548-2.041 1.327l-.018.083h-1.893l.009-.102c.14-1.679 1.596-2.968 3.999-2.968 2.384 0 3.896 1.261 3.896 3.219V24.5h-2.013v-1.54h-.037c-.566 1.048-1.698 1.716-2.987 1.716Zm-1.234-2.996c0 .853.705 1.391 1.781 1.391 1.41 0 2.477-.955 2.477-2.226v-.761l-2.384.148c-1.206.075-1.874.603-1.874 1.43v.018Zm11.875 3.015c-2.44 0-3.869-1.206-4.073-2.988l-.009-.083h1.985l.019.093c.185.9.853 1.428 2.087 1.428 1.206 0 1.93-.5 1.93-1.289v-.01c0-.63-.353-.992-1.401-1.242l-1.596-.362c-1.855-.427-2.774-1.318-2.774-2.737v-.01c0-1.744 1.522-2.94 3.767-2.94 2.31 0 3.702 1.29 3.804 2.95l.009.111h-1.883l-.01-.065c-.12-.853-.788-1.447-1.92-1.447-1.076 0-1.753.51-1.753 1.29v.009c0 .603.399 1.011 1.447 1.262l1.586.361c1.995.464 2.756 1.253 2.756 2.654v.009c0 1.781-1.67 3.006-3.971 3.006Zm8.953 0c-1.93 0-2.858-.817-2.858-2.765v-5.594h-1.401V14.74h1.401v-2.542h2.05v2.542h1.828v1.596h-1.828v5.474c0 .992.446 1.29 1.29 1.29.213 0 .39-.02.538-.038v1.55a6.702 6.702 0 0 1-1.02.083Zm6.336 0c-2.44 0-3.869-1.206-4.073-2.988l-.009-.083h1.985l.019.093c.185.9.853 1.428 2.087 1.428 1.206 0 1.93-.5 1.93-1.289v-.01c0-.63-.353-.992-1.401-1.242l-1.596-.362c-1.855-.427-2.773-1.318-2.773-2.737v-.01c0-1.744 1.521-2.94 3.766-2.94 2.31 0 3.702 1.29 3.804 2.95l.009.111h-1.883l-.009-.065c-.121-.853-.789-1.447-1.921-1.447-1.076 0-1.753.51-1.753 1.29v.009c0 .603.399 1.011 1.447 1.262l1.586.361c1.995.464 2.756 1.253 2.756 2.654v.009c0 1.781-1.67 3.006-3.971 3.006ZM31.55 1.508h1.014V7.28h3.06v.892H31.55V1.508ZM36.816 1.637c0-.347.276-.628.615-.628.336 0 .615.282.615.628 0 .341-.28.624-.615.624a.622.622 0 0 1-.615-.624Zm.122 1.519h.977V8.17h-.977V3.156ZM39.236 6.86v-.006h.982l.004.006c.122.378.48.632 1.065.632.606 0 1.027-.282 1.027-.694V6.79c0-.313-.23-.527-.801-.66l-.783-.185c-.928-.217-1.358-.647-1.358-1.381v-.004c0-.873.796-1.501 1.91-1.501 1.121 0 1.841.573 1.927 1.39v.004h-.936v-.01c-.095-.35-.443-.613-.996-.613-.539 0-.928.271-.928.673v.01c0 .314.227.507.779.64l.778.181c.946.226 1.398.638 1.398 1.363v.009c0 .929-.869 1.561-2.036 1.561-1.186.002-1.937-.566-2.032-1.406ZM44.9 6.85V3.948h-.768v-.79h.769V1.892h1v1.265h1.054v.79h-1.054V6.61c0 .54.2.763.682.763.15 0 .236-.005.372-.02v.8c-.159.027-.34.05-.53.05-1.08-.001-1.524-.389-1.524-1.353ZM47.934 5.678v-.006c0-1.564.887-2.613 2.259-2.613 1.37 0 2.213 1.011 2.213 2.517v.35H48.92c.019.96.535 1.519 1.345 1.519.63 0 1.004-.318 1.122-.578l.019-.036.945-.005-.009.041c-.162.661-.842 1.4-2.1 1.4-1.44.001-2.309-1-2.309-2.59Zm1-.467h2.499c-.077-.896-.57-1.33-1.236-1.33-.67 0-1.176.467-1.263 1.33ZM53.703 3.156h.983v.762h.072c.24-.535.71-.858 1.425-.858 1.1 0 1.707.67 1.707 1.866v3.247h-.977V5.162c0-.831-.34-1.243-1.06-1.243s-1.167.504-1.167 1.312v2.943h-.983V3.156ZM61.806 5.668v-.009c0-1.612.886-2.6 2.326-2.6 1.435 0 2.321.983 2.321 2.6v.009c0 1.617-.883 2.6-2.321 2.6-1.444 0-2.326-.983-2.326-2.6Zm3.647 0v-.009c0-1.114-.48-1.765-1.321-1.765-.847 0-1.322.651-1.322 1.765v.009c0 1.113.475 1.765 1.322 1.765.842 0 1.321-.657 1.321-1.765ZM67.75 3.156h.981v.762h.072c.24-.535.711-.858 1.427-.858 1.1 0 1.705.67 1.705 1.866v3.247h-.977V5.162c0-.831-.339-1.243-1.059-1.243s-1.168.504-1.168 1.312v2.943h-.981V3.156Z"/>
  </g>
  <defs>
    <clipPath id="a">
      <path fill="#fff" d="M0 0h160v28H0z"/>
    </clipPath>
  </defs>
</svg>
