<svg width="499" height="864" viewBox="0 0 499 864" fill="none" xmlns="http://www.w3.org/2000/svg">
<g clip-path="url(#clip0_2810_47)">
<mask id="path-1-inside-1_2810_47" fill="white">
<path fill-rule="evenodd" clip-rule="evenodd" d="M479.777 208.849L480.116 743.963H499V774.482L498.621 775.06L258.363 864L258.203 88.4734L496.085 172.643H498.002V208.57H496.105L479.777 208.849ZM368.91 205.436L285.89 185.078L285.93 295.613L368.91 308.906V205.436ZM377.494 207.812L451.072 227.372V322.998L377.713 310.882L377.494 207.812Z"/>
</mask>
<path d="M480.116 743.963L474.116 743.967L474.12 749.963H480.116V743.963ZM479.777 208.849L479.674 202.85L473.773 202.951L473.777 208.853L479.777 208.849ZM499 743.963H505V737.963H499V743.963ZM499 774.482L504.018 777.77L505 776.272V774.482H499ZM498.621 775.06L500.703 780.687L502.556 780.001L503.639 778.349L498.621 775.06ZM258.363 864L252.363 864.001L252.365 872.618L260.446 869.627L258.363 864ZM258.203 88.4734L260.204 82.817L252.201 79.9853L252.203 88.4746L258.203 88.4734ZM496.085 172.643L494.084 178.299L495.055 178.643H496.085V172.643ZM498.002 172.643H504.002V166.643H498.002V172.643ZM498.002 208.57V214.57H504.002V208.57H498.002ZM496.105 208.57V202.57H496.054L496.003 202.571L496.105 208.57ZM285.89 185.078L287.319 179.25L279.887 177.428L279.89 185.08L285.89 185.078ZM368.91 205.436H374.91V200.73L370.339 199.609L368.91 205.436ZM285.93 295.613L279.93 295.616L279.932 300.729L284.981 301.538L285.93 295.613ZM368.91 308.906L367.961 314.831L374.91 315.944V308.906H368.91ZM451.072 227.372H457.072V222.758L452.614 221.573L451.072 227.372ZM377.494 207.812L379.035 202.013L371.477 200.004L371.494 207.824L377.494 207.812ZM451.072 322.998L450.094 328.918L457.072 330.07V322.998H451.072ZM377.713 310.882L371.713 310.895L371.724 315.975L376.735 316.802L377.713 310.882ZM486.116 743.96L485.777 208.845L473.777 208.853L474.116 743.967L486.116 743.96ZM499 737.963H480.116V749.963H499V737.963ZM505 774.482V743.963H493V774.482H505ZM503.639 778.349L504.018 777.77L493.981 771.193L493.602 771.772L503.639 778.349ZM260.446 869.627L500.703 780.687L496.538 769.433L256.28 858.373L260.446 869.627ZM252.203 88.4746L252.363 864.001L264.363 863.999L264.203 88.4722L252.203 88.4746ZM498.087 166.986L260.204 82.817L256.202 94.1298L494.084 178.299L498.087 166.986ZM498.002 166.643H496.085V178.643H498.002V166.643ZM504.002 208.57V172.643H492.002V208.57H504.002ZM496.105 214.57H498.002V202.57H496.105V214.57ZM479.879 214.848L496.208 214.569L496.003 202.571L479.674 202.85L479.879 214.848ZM284.461 190.905L367.481 211.264L370.339 199.609L287.319 179.25L284.461 190.905ZM291.93 295.611L291.89 185.075L279.89 185.08L279.93 295.616L291.93 295.611ZM369.859 302.982L286.879 289.689L284.981 301.538L367.961 314.831L369.859 302.982ZM362.91 205.436V308.906H374.91V205.436H362.91ZM452.614 221.573L379.035 202.013L375.952 213.61L449.531 233.17L452.614 221.573ZM457.072 322.998V227.372H445.072V322.998H457.072ZM376.735 316.802L450.094 328.918L452.05 317.078L378.691 304.963L376.735 316.802ZM371.494 207.824L371.713 310.895L383.713 310.87L383.494 207.799L371.494 207.824Z" fill="white" mask="url(#path-1-inside-1_2810_47)"/>
<mask id="path-3-inside-2_2810_47" fill="white">
<path fill-rule="evenodd" clip-rule="evenodd" d="M1.55694 172.323L239.759 88.3538L239.918 863.82L0.0598238 774.961L0.119709 774.302V743.504H18.5642L18.4644 208.949L1.57691 209.229H0.0199006L-6.10352e-05 172.343L1.55694 172.323ZM109.729 342.279L55.8325 350.123L55.8524 435.569L109.749 432.316L109.729 342.279ZM212.132 295.613L129.152 308.966L129.132 205.496L212.112 185.098L212.132 295.613ZM46.1512 323.078L119.909 310.922L119.889 207.851L46.1313 227.472L46.1512 323.078ZM165.701 408.285C178.257 407.427 188.697 395.171 188.697 380.96C188.697 366.749 178.257 356.55 165.681 358.167C153.525 359.723 143.903 371.859 143.903 385.351C143.903 398.844 153.525 409.103 165.701 408.285Z"/>
</mask>
<path d="M239.759 88.3538L245.759 88.3525L245.757 79.8774L237.764 82.6951L239.759 88.3538ZM1.55694 172.323L1.63382 178.323L2.6208 178.31L3.55172 177.982L1.55694 172.323ZM239.918 863.82L237.834 869.447L245.92 872.442L245.918 863.819L239.918 863.82ZM0.0598238 774.961L-5.91553 774.417L-6.33138 778.991L-2.02454 780.587L0.0598238 774.961ZM0.119709 774.302L6.09506 774.845L6.11971 774.574V774.302H0.119709ZM0.119709 743.504V737.504H-5.88029V743.504H0.119709ZM18.5642 743.504V749.504H24.5653L24.5642 743.503L18.5642 743.504ZM18.4644 208.949L24.4644 208.948L24.4633 202.849L18.3651 202.95L18.4644 208.949ZM1.57691 209.229V215.229H1.62654L1.67617 215.228L1.57691 209.229ZM0.0199006 209.229L-5.9801 209.232L-5.97685 215.229H0.0199006V209.229ZM-6.10352e-05 172.343L-0.0769365 166.344L-6.00327 166.42L-6.00006 172.347L-6.10352e-05 172.343ZM55.8325 350.123L54.9683 344.185L49.8312 344.933L49.8325 350.124L55.8325 350.123ZM109.729 342.279L115.729 342.277L115.727 335.342L108.865 336.341L109.729 342.279ZM55.8524 435.569L49.8524 435.571L49.8539 441.942L56.2139 441.558L55.8524 435.569ZM109.749 432.316L110.11 438.305L115.75 437.964L115.749 432.314L109.749 432.316ZM129.152 308.966L123.152 308.968L123.153 316.009L130.105 314.89L129.152 308.966ZM212.132 295.613L213.085 301.537L218.133 300.725L218.132 295.612L212.132 295.613ZM129.132 205.496L127.699 199.67L123.131 200.793L123.132 205.497L129.132 205.496ZM212.112 185.098L218.112 185.097L218.111 177.444L210.68 179.271L212.112 185.098ZM119.909 310.922L120.885 316.842L125.91 316.014L125.909 310.921L119.909 310.922ZM46.1512 323.078L40.1512 323.079L40.1527 330.147L47.1269 328.998L46.1512 323.078ZM119.889 207.851L125.889 207.85L125.888 200.047L118.347 202.053L119.889 207.851ZM46.1313 227.472L44.5889 221.673L40.1303 222.859L40.1313 227.473L46.1313 227.472ZM165.701 408.285L166.104 414.271L166.11 414.271L165.701 408.285ZM165.681 358.167L166.444 364.118L166.446 364.118L165.681 358.167ZM237.764 82.6951L-0.437832 166.665L3.55172 177.982L241.753 94.0125L237.764 82.6951ZM245.918 863.819L245.759 88.3525L233.759 88.355L233.918 863.822L245.918 863.819ZM-2.02454 780.587L237.834 869.447L242.003 858.194L2.14419 769.334L-2.02454 780.587ZM-5.85565 773.759L-5.91553 774.417L6.03518 775.504L6.09506 774.845L-5.85565 773.759ZM-5.88029 743.504V774.302H6.11971V743.504H-5.88029ZM18.5642 737.504H0.119709V749.504H18.5642V737.504ZM12.4644 208.95L12.5642 743.506L24.5642 743.503L24.4644 208.948L12.4644 208.95ZM1.67617 215.228L18.5637 214.948L18.3651 202.95L1.47764 203.229L1.67617 215.228ZM0.0199006 215.229H1.57691V203.229H0.0199006V215.229ZM-6.00006 172.347L-5.9801 209.232L6.0199 209.225L5.99994 172.34L-6.00006 172.347ZM1.48007 166.324L-0.0769365 166.344L0.0768144 178.343L1.63382 178.323L1.48007 166.324ZM56.6966 356.06L110.593 348.216L108.865 336.341L54.9683 344.185L56.6966 356.06ZM61.8524 435.568L61.8325 350.121L49.8325 350.124L49.8524 435.571L61.8524 435.568ZM109.387 426.327L55.4909 429.58L56.2139 441.558L110.11 438.305L109.387 426.327ZM103.729 342.28L103.749 432.317L115.749 432.314L115.729 342.277L103.729 342.28ZM130.105 314.89L213.085 301.537L211.179 289.69L128.198 303.043L130.105 314.89ZM123.132 205.497L123.152 308.968L135.152 308.965L135.132 205.495L123.132 205.497ZM210.68 179.271L127.699 199.67L130.564 211.323L213.544 190.924L210.68 179.271ZM218.132 295.612L218.112 185.097L206.112 185.099L206.132 295.615L218.132 295.612ZM118.934 305.002L45.1756 317.157L47.1269 328.998L120.885 316.842L118.934 305.002ZM113.889 207.852L113.909 310.923L125.909 310.921L125.889 207.85L113.889 207.852ZM47.6737 233.27L121.432 213.65L118.347 202.053L44.5889 221.673L47.6737 233.27ZM52.1512 323.076L52.1313 227.47L40.1313 227.473L40.1512 323.079L52.1512 323.076ZM182.697 380.96C182.697 392.576 174.171 401.692 165.292 402.299L166.11 414.271C182.343 413.161 194.697 397.767 194.697 380.96H182.697ZM166.446 364.118C174.767 363.048 182.697 369.66 182.697 380.96H194.697C194.697 363.839 181.747 350.052 164.916 352.216L166.446 364.118ZM149.903 385.351C149.903 374.354 157.773 365.228 166.444 364.118L164.919 352.215C149.276 354.218 137.903 369.363 137.903 385.351H149.903ZM165.299 402.298C157.279 402.837 149.903 396.106 149.903 385.351H137.903C137.903 401.582 149.771 415.369 166.104 414.271L165.299 402.298Z" fill="white" mask="url(#path-3-inside-2_2810_47)"/>
<mask id="path-5-inside-3_2810_47" fill="white">
<path d="M249.041 76.5599L305.192 96.5876V21.7452L249.041 0"/>
</mask>
<path d="M305.192 96.5876L303.176 102.239L311.192 105.098V96.5876H305.192ZM305.192 21.7452H311.192V17.6346L307.359 16.1501L305.192 21.7452ZM247.025 82.2112L303.176 102.239L307.208 90.9363L251.056 70.9086L247.025 82.2112ZM311.192 96.5876V21.7452H299.192V96.5876H311.192ZM307.359 16.1501L251.208 -5.5951L246.874 5.5951L303.025 27.3403L307.359 16.1501Z" fill="white" mask="url(#path-5-inside-3_2810_47)"/>
<mask id="path-7-inside-4_2810_47" fill="white">
<path d="M249.041 76.5599L194.365 95.7526V20.7375L249.041 0"/>
</mask>
<path d="M194.365 95.7526H188.365V104.218L196.352 101.414L194.365 95.7526ZM194.365 20.7375L192.237 15.1275L188.365 16.5961V20.7375H194.365ZM247.054 70.8985L192.378 90.0912L196.352 101.414L251.028 82.2212L247.054 70.8985ZM200.365 95.7526V20.7375H188.365V95.7526H200.365ZM196.493 26.3475L251.169 5.61004L246.913 -5.61004L192.237 15.1275L196.493 26.3475Z" fill="white" mask="url(#path-7-inside-4_2810_47)"/>
</g>
<defs>
<clipPath id="clip0_2810_47">
<rect width="499" height="864" fill="white"/>
</clipPath>
</defs>
</svg>
