<svg xmlns="http://www.w3.org/2000/svg" width="309" height="421" fill="none">
  <g fill="#141924" clip-path="url(#a)">
    <path fill-rule="evenodd" d="m276.874 142.273-60.289 225.576 7.968 2.135-3.446 12.863-.226.201-111.43 10.319 87.516-326.883 90.878 62.373.808.217-4.057 15.142-.8-.214-6.922-1.729Zm-46.399-13.974-32.734-17.968-12.467 46.593 33.516 14.985 11.685-43.61Zm3.354 1.972 28.84 16.564-10.799 40.304-29.589-13.402 11.548-43.466ZM79.196 72.806l110.001-8.457-87.509 326.857-91.182-64.573.1-.271 3.478-12.98 7.783 2.085L82.194 90.154l-7.157-1.791-.658-.176 4.158-15.549.659.168Zm26.453 83.863-23.63-2.788-9.64 36.016 23.11 4.722 10.16-37.95Zm48.483-8.089-36.524-3.755 11.677-43.613 37.32.786-12.473 46.582Zm-73.143-7.193 32.498 3.217 11.631-43.444-33.34-.071-10.79 40.298Zm40.826 49.431c5.395 1.058 11.185-2.927 12.79-8.917 1.604-5.989-1.649-11.469-7.139-12.209-5.305-.719-10.736 3.308-12.26 8.995-1.524 5.687 1.378 11.099 6.609 12.131Z" clip-rule="evenodd"/>
    <path d="m194.446 60.427 21.433 14.79 8.452-31.544-21.239-15.514"/>
    <path d="m194.446 60.427-25.24 1.907 8.472-31.617 25.414-2.558"/>
  </g>
  <defs>
    <clipPath id="a">
      <path fill="#fff" d="m98 0 210.572 56.423-97.575 364.154L.425 364.154z"/>
    </clipPath>
  </defs>
</svg>
