<svg xmlns="http://www.w3.org/2000/svg" width="40" height="40" fill="none">
  <g clip-path="url(#a)">
    <rect width="40" height="40" fill="url(#b)" rx="8"/>
    <mask id="c" width="40" height="40" x="0" y="0" maskUnits="userSpaceOnUse" style="mask-type:alpha">
      <rect width="40" height="40" fill="#D9D9D9" rx="8"/>
    </mask>
    <g clip-path="url(#d)">
      <path fill="#15191A" d="M23.538 19.212c.839-.7 1.05-2.175.875-2.387-.161-.212-1.625-.4-2.525.238-.136.1-.111.237.039.212.5-.062 1.611-.2 1.811.063.2.25-.225 1.312-.411 1.787-.05.137.061.2.2.087m10.175-7.125a1.153 1.153 0 0 0-1.039-.525c-.611 0-.961.288-1.211.9h-.014v-.675c-.011-.074-.075-.112-.15-.124h-.825a.175.175 0 0 0-.175.15v4.412c0 .088.075.15.164.163h.886c.1 0 .175-.075.175-.15v-2.375c0-.3.014-.563.139-.838a.584.584 0 0 1 .511-.35c.614 0 .55.7.55 1.187v2.4c0 .075.075.138.15.138h.889c.086 0 .161-.063.175-.137v-2.775c0-.425 0-1.026-.239-1.375m-8.761 13.062-.875-.338a2.427 2.427 0 0 1-.714-.375.62.62 0 0 1-.175-.462c0-.487.364-.725 1.089-.725.411 0 .825.063 1.211.175.085.032.174.053.264.063.1 0 .15-.076.15-.2v-.3a.483.483 0 0 0-.05-.213.325.325 0 0 0-.2-.112 3.994 3.994 0 0 0-1.425-.263 2.258 2.258 0 0 0-1.489.45 1.429 1.429 0 0 0-.561 1.175c0 .737.411 1.263 1.25 1.575l.961.363c.239.074.45.187.639.337a.605.605 0 0 1 .175.437c0 .276-.1.476-.289.613-.186.15-.461.212-.836.212a4.868 4.868 0 0 1-1.539-.237 1.087 1.087 0 0 0-.286-.075c-.089 0-.139.075-.139.2v.313c0 .1.014.162.05.212.025.038.1.087.189.125.5.213 1.075.313 1.7.313.661 0 1.186-.15 1.586-.463a1.557 1.557 0 0 0 .6-1.263 1.424 1.424 0 0 0-.286-.912 2.354 2.354 0 0 0-.964-.612m-2.95-8.826a3.272 3.272 0 0 1 2.989 0c.1.063.211-.05.211-.137v-.663a.267.267 0 0 0-.15-.25 3.12 3.12 0 0 0-1.611-.337l1.461-2.075c.139-.188.214-.3.214-.387v-.538c0-.088-.075-.15-.164-.15h-2.825c-.086 0-.161.062-.161.15v.625c0 .1.075.15.161.15h1.475l-1.7 2.412c-.1.15-.1.325-.1.425v.638c0 .088.1.2.2.15m5.6-.887c-.675 0-.661-1.138-.661-1.663 0-.525.036-1.375.675-1.375.275 0 .461.112.561.412.114.35.125.776.125 1.15 0 .55-.025 1.463-.7 1.463m0-3.913c-1.236 0-1.925 1.05-1.925 2.4 0 1.35.675 2.413 1.925 2.413s1.95-1.05 1.95-2.363c0-1.312-.686-2.45-1.95-2.45Zm.139 8.788c-.225 0-.414.062-.539.2a.76.76 0 0 0-.2.525c0 .213.064.388.2.525a.715.715 0 0 0 .539.2.716.716 0 0 0 .536-.2.76.76 0 0 0 .2-.525.707.707 0 0 0-.2-.525.717.717 0 0 0-.536-.2Zm.361 2.312h-.725c-.161 0-.25.075-.25.226v5.324c0 .15.075.226.25.226h.725c.164 0 .239-.076.239-.226V22.9c0-.15-.075-.225-.239-.225M8.402 15.137c-.139.238-.35.376-.589.376-.325 0-.525-.238-.525-.6 0-.713.65-.838 1.275-.838v.175c0 .325 0 .6-.15.887m.15-1.737c-.486.05-1.136.1-1.6.287a1.405 1.405 0 0 0-.911 1.363c0 .862.561 1.3 1.275 1.3.611 0 .936-.137 1.4-.612.15.212.211.324.486.562a.17.17 0 0 0 .2-.025l.65-.55c.075-.05.064-.15 0-.225-.15-.213-.325-.375-.325-.775v-1.3c0-.55.039-1.05-.375-1.437-.325-.313-.875-.413-1.286-.413-.814 0-1.714.3-1.9 1.275-.025.1.05.15.125.175l.825.088c.075 0 .136-.076.15-.15.075-.338.361-.5.686-.5.175 0 .375.062.475.212.114.175.1.412.1.6v.1l.025.025Zm4.589 9.025c-.814.025-1.6.288-2.25.775-.25-.525-.725-.775-1.439-.775-.761.025-1.5.275-2.125.725l-.075-.35c-.011-.087-.036-.137-.086-.163a.332.332 0 0 0-.175-.037h-.5c-.15 0-.225.075-.225.225v5.163c0 .15.075.224.225.224h.675c.15 0 .225-.074.225-.224v-4.175a3.136 3.136 0 0 1 1.661-.488c.314 0 .539.087.675.262.139.175.214.45.214.825V28c0 .15.075.225.225.225h.675c.15 0 .225-.075.225-.225v-4.163a3.297 3.297 0 0 1 1.675-.5c.311 0 .536.088.675.263.15.175.225.45.225.825v3.587c0 .15.075.226.225.226h.661c.15 0 .225-.076.225-.226v-3.9c0-.524-.136-.937-.425-1.224-.286-.288-.686-.426-1.2-.426m7.714.2h-.664c-.15 0-.225.075-.225.226v4.137c-.55.35-1.086.525-1.625.525-.35 0-.6-.088-.761-.287-.15-.188-.239-.475-.239-.876v-3.512c0-.15-.075-.225-.225-.225h-.661c-.15 0-.225.075-.225.225v3.862c0 .538.136.963.425 1.25.286.3.686.45 1.225.45.736 0 1.45-.262 2.15-.762l.075.387a.217.217 0 0 0 .261.201h.489c.15 0 .225-.075.225-.225v-5.163c0-.15-.075-.225-.225-.225m12.925 4.675s-.114.013-.175.038c-.375.1-.725.15-1.039.15-.625 0-1.086-.15-1.361-.475-.289-.325-.439-.825-.439-1.525v-.15c0-.713.139-1.213.425-1.538.289-.325.75-.488 1.4-.488.325 0 .65.05.964.138.086.025.15.038.186.038.1 0 .15-.076.15-.226v-.312c0-.1-.011-.175-.05-.225a.384.384 0 0 0-.175-.112 3.714 3.714 0 0 0-1.225-.213c-.911 0-1.611.263-2.111.788-.5.524-.75 1.274-.75 2.237 0 .963.236 1.712.725 2.225.475.513 1.175.762 2.086.762.5 0 .939-.075 1.325-.237a.445.445 0 0 0 .189-.125.412.412 0 0 0 .05-.212v-.3c0-.15-.05-.226-.15-.226M10.813 16.375h.864c.086 0 .161-.075.161-.15v-2.337c0-.513-.025-1.213.6-1.213s.525.725.525 1.212v2.338c0 .088.075.15.15.15h.864c.086 0 .161-.075.161-.15v-2.337c0-.25 0-.625.075-.838a.59.59 0 0 1 .525-.362c.25 0 .45.087.514.387.036.175.025.637.025.825v2.337c0 .088.075.15.15.15h.861c.1 0 .175-.074.175-.15V13.45c0-.475.05-1.012-.225-1.387a1.255 1.255 0 0 0-1-.488 1.209 1.209 0 0 0-1.186.825c-.239-.563-.589-.825-1.125-.825-.539 0-.925.262-1.139.825h-.025v-.575a.162.162 0 0 0-.15-.15h-.8a.167.167 0 0 0-.161.162v4.413c0 .075.075.137.15.15m8.961-2.15c0 .325 0 .6-.15.887-.136.238-.35.388-.6.388-.325 0-.525-.25-.525-.6 0-.712.65-.837 1.275-.837v.175-.013Zm0-.85c-.5.05-1.136.1-1.6.287a1.404 1.404 0 0 0-.911 1.363c0 .862.561 1.3 1.275 1.3.611 0 .936-.137 1.4-.612.15.212.211.324.486.562a.17.17 0 0 0 .2-.025l.65-.55c.075-.05.064-.15 0-.225-.15-.213-.325-.375-.325-.775v-1.3c0-.55.039-1.05-.375-1.437-.325-.313-.875-.413-1.286-.413-.814 0-1.714.3-1.9 1.275-.025.1.061.15.125.175l.825.088c.075 0 .136-.076.15-.15.075-.338.361-.5.686-.5.175 0 .375.062.475.212.114.175.1.412.1.6v.1l.025.025Zm-9.775 3.7a10.98 10.98 0 0 0 7.239 2.65c2 0 4.325-.6 5.925-1.738.261-.187.036-.462-.239-.362a14.864 14.864 0 0 1-12.75-.762c-.175-.1-.311.074-.161.212"/>
    </g>
  </g>
  <defs>
    <clipPath id="a">
      <path fill="#fff" d="M0 0h40v40H0z"/>
    </clipPath>
    <clipPath id="d">
      <path fill="#fff" d="M0 0h40v40H0z"/>
    </clipPath>
    <linearGradient id="b" x1="20" x2="20" y1="0" y2="40" gradientUnits="userSpaceOnUse">
      <stop stop-color="#8AE2EB"/>
      <stop offset="1" stop-color="#26D1DA"/>
    </linearGradient>
  </defs>
</svg>
