<svg xmlns="http://www.w3.org/2000/svg" width="40" height="40" fill="none">
  <g clip-path="url(#a)">
    <mask id="b" width="40" height="40" x="0" y="0" maskUnits="userSpaceOnUse" style="mask-type:alpha">
      <rect width="40" height="40" fill="#D9D9D9" rx="8"/>
    </mask>
    <g clip-path="url(#c)" mask="url(#b)">
      <path fill="#1C1F3E" d="M0 0h40v40H0V0Z"/>
      <path fill="#00D9CD" d="M8.995 18.97v.815a.175.175 0 0 1-.163.162h-1.02a.087.087 0 0 0-.08.082v4.315a.175.175 0 0 1-.163.162h-.815a.175.175 0 0 1-.163-.162v-4.315a.087.087 0 0 0-.081-.082H5.492a.175.175 0 0 1-.162-.162v-.815a.175.175 0 0 1 .162-.163H8.83a.175.175 0 0 1 .162.163h.003Zm4.302-.163h-.815a.175.175 0 0 0-.162.163v3.827c0 .367-.285.65-.794.65-.489 0-.775-.283-.775-.65V18.97a.174.174 0 0 0-.162-.163h-.813a.175.175 0 0 0-.164.163v3.827a1.838 1.838 0 0 0 1.913 1.792 1.841 1.841 0 0 0 1.934-1.792V18.97a.174.174 0 0 0-.162-.163Zm4.542 0h-.814a.175.175 0 0 0-.163.163v3.054c0 .009-.004.017-.01.025a.044.044 0 0 1-.023.015.044.044 0 0 1-.05-.02l-1.118-3.094a.186.186 0 0 0-.204-.143h-.977a.175.175 0 0 0-.163.163v5.375a.175.175 0 0 0 .163.162h.815a.174.174 0 0 0 .162-.162v-2.81a.043.043 0 0 1 .033-.041.042.042 0 0 1 .027.002c.01.004.017.01.022.019l1.1 2.85a.216.216 0 0 0 .222.142h.958a.175.175 0 0 0 .162-.162V18.97a.143.143 0 0 0-.142-.163Zm4.213 4.56H20.12a.088.088 0 0 1-.082-.082v-.976a.087.087 0 0 1 .082-.082h1.832a.175.175 0 0 0 .163-.162v-.815a.174.174 0 0 0-.163-.163H20.12a.087.087 0 0 1-.082-.08v-.978a.087.087 0 0 1 .082-.082h1.893a.174.174 0 0 0 .163-.162v-.815a.175.175 0 0 0-.163-.163H19.06a.175.175 0 0 0-.163.163v5.375a.175.175 0 0 0 .163.162h2.992a.174.174 0 0 0 .163-.162v-.815a.175.175 0 0 0-.163-.163Zm14.117-10.7H24.167a.494.494 0 0 0-.5.5V16H3.831a.493.493 0 0 0-.5.5v10.334a.491.491 0 0 0 .5.5h20.336a.49.49 0 0 0 .5-.5V24h11.5a.488.488 0 0 0 .502-.5V13.166a.49.49 0 0 0-.5-.5ZM23.667 26.25a.102.102 0 0 1-.005.032.075.075 0 0 1-.046.045.077.077 0 0 1-.032.005H4.414a.079.079 0 0 1-.083-.082V17.08A.079.079 0 0 1 4.415 17h19.252v9.25Zm5.817-5.193a.177.177 0 0 1-.167.165h-2.725a.177.177 0 0 1-.165-.165v-.785a.177.177 0 0 1 .165-.165h.703a.089.089 0 0 0 .082-.082v-3.386a.088.088 0 0 0-.082-.083h-.62a.177.177 0 0 1-.165-.165v-.785a.179.179 0 0 1 .165-.165h2.56a.177.177 0 0 1 .165.165v.785a.177.177 0 0 1-.165.165h-.619a.089.089 0 0 0-.082.083v3.386a.088.088 0 0 0 .082.082h.701a.178.178 0 0 1 .165.165l.002.785Zm4.625 0a.177.177 0 0 1-.167.165h-.97a.22.22 0 0 1-.226-.145l-1.115-2.89a.045.045 0 0 0-.074-.006.044.044 0 0 0-.01.026v2.85a.178.178 0 0 1-.165.165h-.825a.178.178 0 0 1-.166-.165v-5.45a.18.18 0 0 1 .166-.166h.97a.19.19 0 0 1 .207.145l1.136 3.138a.044.044 0 0 0 .073.006.044.044 0 0 0 .01-.026v-3.098a.177.177 0 0 1 .164-.165h.825a.177.177 0 0 1 .167.165V21.057Z"/>
    </g>
  </g>
  <defs>
    <clipPath id="a">
      <path fill="#fff" d="M0 0h40v40H0z"/>
    </clipPath>
    <clipPath id="c">
      <path fill="#fff" d="M0 0h40v40H0z"/>
    </clipPath>
  </defs>
</svg>
