<svg xmlns="http://www.w3.org/2000/svg" width="40" height="40" fill="none">
  <g clip-path="url(#a)">
    <path fill="#FDE43E" d="M20 40c11.045 0 20-8.955 20-20S31.045 0 20 0 0 8.955 0 20s8.955 20 20 20Z"/>
    <path fill="#fff" fill-rule="evenodd" d="m16.517 11.065-3.154 3.842-.653 4.197-1.438.765-.205 3.886.546 2.727 1.75 1.17 1.72-.365 1.434-1.475-.327-3.012-.305-3.11-1.303-1.005.2-2.61 2.593-3.178 3.05-.178 2.512.491 1.643 1.263.958 2.187.184 2.444-.72 1.345.018 2.474.315 2.979.295 1.162h2.922l.92-1.117.358-2.575-.822-3.917-1.605-.971-.77-4.01-3.103-3.634-3.433-1.027-3.58 1.25v.002Z" clip-rule="evenodd"/>
    <path fill="#333" fill-rule="evenodd" stroke="#333" stroke-width=".27" d="M34.5 29.055a.832.832 0 0 1-.142-.013 2.165 2.165 0 0 1-.493-.162 9.941 9.941 0 0 1-.718-.383c-.364-.207-.68-.36-1.047-.434-.142-.028-.343-.085-.437-.258-.093-.173-.033-.37.034-.522.02-.048.044-.094.07-.14a.517.517 0 0 1 .58-.216l.036.01a1 1 0 0 1 .339.148c.216.17.47.287.738.41.117.052.23.106.342.162.263.133.483.171.716.126a.466.466 0 0 1 .379.069.467.467 0 0 1 .181.338c.007.054.011.105.014.153l.003.045-.005.065-.01.095a.567.567 0 0 1-.58.507Zm-1.418-6.058-.067-.002-.05-.002c-.245-.001-.458-.121-.517-.29a.416.416 0 0 1 .029-.338.567.567 0 0 1 .338-.275c.267-.077.555-.143.87-.108.156.016.31.03.462.043.253.023.516.017.826-.018.262-.032.384-.084.465-.202.094-.133.324-.168.45-.137a.466.466 0 0 1 .312.294c.057.2.05.505-.322.805a.667.667 0 0 1-.371.11c-.237.005-.474.006-.71.005h-.225a6.694 6.694 0 0 1-.507.016c-.295.004-.575.005-.843.082a.498.498 0 0 1-.14.017Zm-.835-3.815a.5.5 0 0 1-.335-.124.35.35 0 0 1-.13-.25.834.834 0 0 1 .056-.411c.078-.16.18-.307.304-.435.463-.48.853-1.034 1.23-1.572l.146-.205c.112-.158.25-.352.532-.412.123-.026.353-.033.473.067a.23.23 0 0 1 .084.192.668.668 0 0 1-.09.345 80.175 80.175 0 0 1-1.655 2.366 2.17 2.17 0 0 1-.3.327.5.5 0 0 1-.214.097l-.063.013h-.038v.002ZM6.655 28.453a.833.833 0 0 1-.23-.033.5.5 0 0 1-.317-.308.367.367 0 0 1 .02-.319.667.667 0 0 1 .174-.216c.12-.097.25-.18.388-.247.605-.262 1.195-.59 1.767-.908.213-.12.427-.239.641-.355a.917.917 0 0 1 .42-.084c.114 0 .22.062.292.17.062.094.105.242.042.377a1.334 1.334 0 0 1-.537.588l-.36.219c-.188.116-.385.238-.583.35-.209.116-.424.226-.63.333-.176.091-.35.183-.522.277-.172.1-.366.153-.565.156Zm.095-5.703-.202-.002-.14-.001a1 1 0 0 1-.325-.059c-.195-.068-.316-.213-.325-.39a.417.417 0 0 1 .315-.425c.35-.089.708-.14 1.069-.151.166-.009.325-.017.476-.042.517-.087.95.05 1.342.213.188.079.29.239.273.43-.02.207-.221.379-.461.39-.034.004-.067.004-.122.004l-.123-.005c-.437-.089-.95-.039-1.349.015a3.314 3.314 0 0 1-.428.023Zm2.323-3.853h-.015a1 1 0 0 1-.418-.077 3.33 3.33 0 0 1-.63-.375A7.498 7.498 0 0 1 6.383 16.7a2.666 2.666 0 0 1-.463-1.368c-.005-.16.147-.264.238-.31.129-.067.309-.002.38.095.078.103.142.216.194.335.346.858 1.043 1.483 1.726 2.05.081.059.169.108.262.145l.123.058.154.072c.098.043.2.088.296.15a.533.533 0 0 1 .264.493c-.034.268-.25.477-.484.477Zm19.909 5.136c-.044.639-.239.632-.245 1.232-.007.6-.007.91-.267 1.012a6.166 6.166 0 0 1-1.833.288c-.795 0-.797.043-.977-.173-.18-.215-.243-1.034-.272-1.925-.028-.892-.058-1.637-.186-2.242-.127-.603.041-1.918.233-2.333.192-.417.158-.365.305-.429 0 0 .575.03.897 0 .321-.031 1.061-.16 1.35.014.286.175.425.513.646 1.491.222.979.39 2.427.349 3.065Zm-3.997-8.846c-.117-.59-.058-.242-.45-1.005-.392-.764-.61-.73-1.305-1.184-.695-.456-2.17-.875-2.397-.953-.226-.078-.153-.03-.4-.043-.245-.014-.63-.182-1.87 0-1.24.181-2.235.906-2.95 1.746-.713.839-1.15 1.784-1.521 2.464-.37.68-.309 1.26-.35 1.65-.045.39-.11.336-.249.421-.138.085-.445 0-.445 0-.145-.028.044-.393.074-.696.03-.302-.06-.669-.072-.922-.013-.253.058-.3.137-.433.18-.32.352-.644.516-.972.147-.295.497-1.025.66-1.317.164-.29.307-.723 1.207-1.501.9-.779 1.392-.962 1.855-1.15.462-.192 1.413-.705 1.675-.794.262-.088.367-.113.767-.15.4-.033 1.47.134 1.756.164.285.028.26.043.575.296.317.255.767.724 1.174 1.015.406.292.855.599 1.015.74.16.142.483.387.52.634.035.25.223.373.355.543.133.17.155.36.475 1.567.318 1.208.398 1.213.473 1.683.077.473.003.797-.137.975-.141.177-.186.088-.288-.005-.102-.093-.16-.655-.368-1.278-.21-.624-.314-.905-.432-1.495Zm-9.528 6.16c.153.975.421 3.073.25 3.953-.169.88-.457 1.315-.775 1.523-.319.209-1.017.329-1.82.085-.8-.241-1.109-.431-1.395-1.27-.287-.84-.127-.7-.234-1.26-.105-.56-.238-.745-.213-1.178.025-.433-.067-1.842.03-2.312.1-.47.07-.923.507-1 .436-.078.696.105.983-.003.288-.11.258-.155.55-.205.278-.045.818-.203 1.172-.043.35.16.791.733.945 1.71Zm14.458.9c-.192-.549-.108-1.042-.257-1.929-.15-.886-.536-1.188-.536-1.188s-.184-.547-.907-.75c-.723-.203-.513-.043-.588-.455a16.715 16.715 0 0 0-.184-.9 4.996 4.996 0 0 1-.141-1.053c-.02-.439-.022-.934-.22-1.324-.2-.391-.57-1.126-.965-1.781s-.645-.984-1.262-1.494-.995-1.043-1.62-1.373c-.623-.332-.58-.427-1.205-.592-.623-.166-.71-.066-1.525-.133-.815-.07-.893-.127-1.513 0-.622.123-1.024.485-1.752.818-.728.334-1.025.325-1.522.749-.496.423-.386.553-.803.898-.417.345-.667.538-1.227 1.483-.56.947-.966 1.907-1.17 2.352-.2.447-.383.58-.408 1.08-.025.5.078.422-.04.995s-.247 1.042-.247 1.042-.731-.014-1.155.785c-.423.8-.388 1.118-.445 1.586-.056.469.059 1.707.145 2.525.087.819.142 1.984.285 2.397.144.413.664 1.583 1.792 1.933 1.13.347 1.383.395 1.717.314.333-.084.925-.254 1.343-.394.417-.14.913-.583 1.145-1.6.232-1.016.245-1.52.153-2.925-.093-1.403-.083-2.143-.476-3.206-.394-1.064-.97-1.217-1.234-1.457-.26-.238-.281-.167-.246-.492.033-.325-.044-1.065.786-2.356.83-1.292 1.689-2.1 2.93-2.464a4.033 4.033 0 0 1 2.62.097c.46.167.59.225.987.3.397.075.675.307.923.6.25.295.767 1.025.995 1.528.23.505.1.744.357 1.3.258.559.512.737.457 1.12-.055.384-.11.272-.205.544-.095.271-.462.786-.515 1.411-.052.627-.1 1.145-.089 1.835.01.692.164.915.154 1.715-.009.8-.077 2.132.16 2.777.233.645.395 1.07.673 1.182.278.111.213.123.387.11 0 0 .193-.11.701-.099.509.012 1.897.102 2.642-.316.745-.42.88-.652 1.043-2.02.164-1.367.255-2.629.064-3.175h-.002Z" clip-rule="evenodd"/>
  </g>
  <defs>
    <clipPath id="a">
      <path fill="#fff" d="M0 0h40v40H0z"/>
    </clipPath>
  </defs>
</svg>
