<svg xmlns="http://www.w3.org/2000/svg" width="40" height="40" fill="none">
  <g clip-path="url(#a)">
    <rect width="40" height="40" fill="url(#b)" rx="8"/>
    <mask id="c" width="40" height="40" x="0" y="0" maskUnits="userSpaceOnUse" style="mask-type:alpha">
      <rect width="40" height="40" fill="#D9D9D9" rx="8"/>
    </mask>
    <g mask="url(#c)">
      <path fill="#fff" d="M27.439 7.98a8.964 8.964 0 0 0-7.415 4.014 8.991 8.991 0 0 0-7.415-4.013 8.856 8.856 0 0 0-8.859 8.856c0 3.11 1.957 5.335 4.013 7.417l8.027 7.587a.653.653 0 0 0 1.101-.491v-5.923a3.109 3.109 0 0 1 6.217 0v5.923a.653.653 0 0 0 1.1.49l8.028-7.587c2.055-2.078 4.014-4.304 4.014-7.413a8.783 8.783 0 0 0-8.811-8.859V7.98ZM11.974 23.668a.58.58 0 0 1-.465.195.664.664 0 0 1-.417-.147c-2.642-2.35-3.987-4.796-3.987-7.267v-.025a7.181 7.181 0 0 1 3.032-5.654.622.622 0 1 1 .66 1.053 5.917 5.917 0 0 0-2.446 4.6v.025c0 2.104 1.199 4.258 3.573 6.362a.572.572 0 0 1 .05.858Zm3.965-2.276a.638.638 0 0 1-.538.318.652.652 0 0 1-.295-.075 5.893 5.893 0 0 1-3.01-4.918v-.024a4.974 4.974 0 0 1 2.642-4.38.618.618 0 1 1 .562 1.1 3.73 3.73 0 0 0-2.006 3.305 4.564 4.564 0 0 0 2.375 3.842.599.599 0 0 1 .268.831l.002.002Zm4.087-1.567a2.668 2.668 0 1 1 0-5.336 2.668 2.668 0 0 1 0 5.336Zm4.919 1.811a.652.652 0 0 1-.294.073.636.636 0 0 1-.538-.318.61.61 0 0 1 .245-.832 4.627 4.627 0 0 0 2.373-3.843 3.713 3.713 0 0 0-2.007-3.304.619.619 0 0 1 .562-1.1 4.928 4.928 0 0 1 2.644 4.38v.026a5.763 5.763 0 0 1-2.985 4.918Zm7.977-5.187c0 2.47-1.346 4.917-3.988 7.267a.656.656 0 0 1-.882-.05.614.614 0 0 1 .05-.855c2.374-2.105 3.572-4.233 3.572-6.362v-.025a5.915 5.915 0 0 0-2.447-4.601.622.622 0 1 1 .66-1.053 7.174 7.174 0 0 1 3.035 5.654v.025Z"/>
    </g>
  </g>
  <defs>
    <linearGradient id="b" x1="0" x2="40" y1="20" y2="20" gradientUnits="userSpaceOnUse">
      <stop stop-color="#C80024"/>
      <stop offset="1" stop-color="#AA001F"/>
    </linearGradient>
    <clipPath id="a">
      <path fill="#fff" d="M0 0h40v40H0z"/>
    </clipPath>
  </defs>
</svg>
