<svg xmlns="http://www.w3.org/2000/svg" width="44" height="44" fill="none">
  <path fill="#AAB0BB" fill-rule="evenodd" d="M17.438 24.75A8.212 8.212 0 0 0 22 26.125a8.211 8.211 0 0 0 4.562-1.375 8.25 8.25 0 1 0-9.124 0ZM22 22a4.125 4.125 0 1 0 0-8.25A4.125 4.125 0 0 0 22 22Z" clip-rule="evenodd"/>
  <path fill="#AAB0BB" fill-rule="evenodd" d="M44 22c0 12.15-9.85 22-22 22S0 34.15 0 22 9.85 0 22 0s22 9.85 22 22ZM31.625 37.065A17.791 17.791 0 0 1 22 39.875a17.792 17.792 0 0 1-9.625-2.81A4.125 4.125 0 0 1 16.5 33h11a4.125 4.125 0 0 1 4.125 4.065Zm3.547-2.98a8.253 8.253 0 0 0-7.672-5.21h-11c-.057 0-.115 0-.172.002a8.254 8.254 0 0 0-7.5 5.207A17.81 17.81 0 0 1 4.125 22c0-9.872 8.003-17.875 17.875-17.875S39.875 12.128 39.875 22a17.81 17.81 0 0 1-4.703 12.084Z" clip-rule="evenodd"/>
</svg>
